#N canvas 735 419 450 300 12;
#X msg 173 96 tempo \$1;
#X floatatom 239 195 5 0 0 1 beat_time - - 0;
#X floatatom 351 185 5 0 0 1 tempo - - 0;
#X obj 60 47 tgl 15 0 empty empty empty 17 7 0 10 #fcfcfc #000000 #000000 0 1;
#X obj 173 139 abl_link~ 1 0 4 134;
#X msg 60 67 connect \$1;
#X obj 173 66 inlet;
#X obj 258 237 pack f f;
#X obj 60 20 loadbang;
#X obj 258 262 outlet;
#X connect 0 0 4 0;
#X connect 3 0 5 0;
#X connect 4 2 7 0;
#X connect 4 3 7 1;
#X connect 5 0 4 0;
#X connect 6 0 0 0;
#X connect 7 0 9 0;
#X connect 8 0 3 0;
