#N canvas 55 99 476 471 10;
#X declare -path AutoPreset;
#X declare -path decoupeur -path effects;
#X declare -path domonet -path gammabs -path song -path moonlib;
#X declare -path effects;
#X declare -path AutoPreset;
#X declare -path notebank;
#X declare -path AutoPreset;
#X declare -path effects -path rhythmic -path moonlib;
#X obj 28 99 5clicks;
#X obj 28 77 bng 15 250 50 0 empty empty 5_clicks_to_save_song 17 7
0 10 -258113 -1 -1;
#X obj 7 122 bng 15 250 50 0 empty empty empty 17 7 0 10 -262144 -1
-1;
#X obj 29 202 s /SONG;
#X obj 30 257 songParam MYSONGS my_parameter;
#X floatatom 30 230 5 0 0 0 - - -;
#X floatatom 30 278 5 0 0 0 - - -;
#X msg 29 177 symbol song1;
#X obj 181 99 s /UNLOCKSNAP;
#X obj 181 76 tgl 15 0 empty empty but_unlock_first 17 7 0 10 -262144
-1 -1 0 1;
#X msg 112 177 symbol song2;
#X text 150 42 <- synchronization with other instruments;
#X obj 329 68 r TEMPOLED;
#X obj 329 93 tgl 30 0 empty empty empty 17 7 0 10 -262144 -258113
-1 0 1;
#X msg 291 316 145;
#X floatatom 291 379 5 0 0 0 - - -;
#X msg 325 317 545;
#X obj 344 211 tgl 15 0 empty empty scale_sequencer 17 7 0 10 -4034
-1 -1 0 1;
#X obj 291 296 sel 0 1, f 12;
#X obj 290 136 GAMMEKBV /GAMME;
#X obj 291 337 s /GAMME;
#X obj 291 358 r /GAMME;
#X obj 291 210 r CLOCK;
#X obj 291 274 spigot;
#X obj 291 254 tgl 15 0 empty empty empty 17 7 0 10 -262144 -1 -1 0
1;
#X obj 291 232 ndmetro 2 0.25;
#N canvas 573 111 709 580 DECOUPEUR_example 0;
#X obj 18 152 decsample BANKA 1 decoupeur-setting1;
#X obj 271 80 bng 15 250 50 0 empty empty load 17 7 0 10 -4034 -1 -1
;
#X obj 544 81 bng 15 250 50 0 empty empty save 17 7 0 10 -258113 -1
-1;
#X obj 271 59 loadbang;
#X obj 22 24 declare -path AutoPreset;
#X obj 271 100 apmasterfile DECSET exampleSettings/DECSET.txt;
#X obj 20 44 decoupeur_ctl decoupeur-setting1 DECSET;
#X obj 272 39 apmaster DECSET;
#X obj 385 158 ggee/getdir;
#X obj 385 135 loadbang;
#X obj 365 136 bng 15 250 50 0 empty empty empty 17 7 0 10 -262144
-1 -1;
#X obj 385 201 s BANKA-DATASDIR;
#X msg 385 180 symbol \$1/decoupeur/WAVS;
#X obj 18 182 *~ 0.2;
#X obj 18 203 dac~;
#X obj 26 227 hsl 128 15 0 1 0 0 empty empty empty -2 -8 0 10 -262144
-1 -1 0 1;
#X obj 23 527 dac~, f 66;
#X msg 453 310 BANKA-1;
#X obj 453 288 loadbang;
#X obj 23 247 MORPHgroup DECSET SEQ;
#X obj 22 355 fragseq DECSET-SEQ fragseq1;
#X obj 453 337 s DECSET-SEQ-fragseq1-sample;
#X obj 129 457 fdnrev DECSET-SEQ fd1;
#X obj 22 6 declare -path decoupeur -path effects;
#X obj 454 407 s DECSET-SEQ-fragseq1-vol-rcv;
#X floatatom 454 381 5 0 0 0 - - -;
#X obj 455 440 bng 15 250 50 0 empty empty empty 17 7 0 10 -262144
-1 -1;
#X obj 455 460 s DECSET-SEQ-fragseq1-changeall-rcv;
#X connect 0 0 13 0;
#X connect 1 0 5 0;
#X connect 2 0 5 1;
#X connect 3 0 1 0;
#X connect 8 0 12 0;
#X connect 9 0 8 0;
#X connect 10 0 8 0;
#X connect 12 0 11 0;
#X connect 13 0 14 0;
#X connect 13 0 14 1;
#X connect 15 0 19 0;
#X connect 17 0 21 0;
#X connect 18 0 17 0;
#X connect 20 0 16 0;
#X connect 20 0 22 0;
#X connect 20 1 16 1;
#X connect 20 1 22 0;
#X connect 22 0 16 0;
#X connect 22 1 16 1;
#X connect 25 0 24 0;
#X connect 26 0 27 0;
#X restore 30 351 pd DECOUPEUR_example;
#X text 27 139 (./exampleSettings/MYSONGS directory must have been
created before), f 36;
#X obj 28 120 songMaster MYSONGS exampleSettings;
#X obj 22 10 declare -path domonet -path gammabs -path song -path moonlib
, f 66;
#X obj 22 42 domonet MyInstrument;
#N canvas 704 128 578 544 EFFECTS_example 0;
#X obj 20 96 bng 15 250 50 0 empty empty load 17 7 0 10 -4034 -1 -1
;
#X obj 245 91 bng 15 250 50 0 empty empty save 17 7 0 10 -258113 -1
-1;
#X obj 20 75 loadbang;
#X obj 23 145 hsl 128 15 0 1 0 0 empty empty empty -2 -8 0 10 -262144
-1 -1 0 1;
#X obj 20 54 apmaster FX;
#X obj 20 116 apmasterfile FX exampleSettings/FX.txt;
#X obj 20 165 MORPHgroup FX A;
#X obj 22 7 declare -path effects;
#X obj 22 252 apdisto FX-A disto1;
#X obj 158 253 apdiv FX-A div1;
#X obj 264 254 apecho FX-A echo1;
#X obj 396 254 apgap FX-A gap1;
#X obj 24 354 aprev FX-A r1;
#X obj 124 354 apshifter FX-A sh1;
#X obj 24 422 fdnrev FX-A fd1;
#X obj 262 354 apssb FX-A ssb1;
#X msg 128 468 vol \$1;
#X obj 131 449 hsl 128 15 0 1 0 0 empty empty empty -2 -8 0 10 -262144
-1 -1 0 1;
#X obj 128 488 s FX-A-sh1-setap-snd;
#X obj 22 28 declare -path AutoPreset;
#X obj 401 356 apeq FX-A eq1;
#X obj 404 446 apflang FX-A fl1;
#X obj 270 447 apcheb FX-A cheb1;
#X connect 0 0 5 0;
#X connect 1 0 5 1;
#X connect 2 0 0 0;
#X connect 3 0 6 0;
#X connect 16 0 18 0;
#X connect 17 0 16 0;
#X restore 29 378 pd EFFECTS_example;
#N canvas 700 191 739 426 NOTEBANK_example 0;
#X obj 42 35 loadbang;
#X obj 69 79 ggee/getdir;
#X obj 69 122 s NOTEBANK-DATASDIR;
#X obj 41 175 notebank 1 4 bankA;
#X obj 41 226 accorder;
#X obj 41 253 dac~;
#X obj 21 36 bng 15 250 50 0 empty empty empty 17 7 0 10 -262144 -1
-1;
#X obj 42 145 s NOTEBANK-LOADTABLES;
#X obj 42 56 t b b;
#X obj 41 195 notebank 2 3 bankB;
#X obj 371 329 s PLAYER1;
#X obj 371 163 + 1;
#X obj 371 184 t b f;
#X obj 371 205 i;
#X obj 371 226 + 1;
#X obj 371 247 mod 10;
#X msg 371 142 0 \, 1 \, 2;
#X obj 41 288 clone 10 noteplayer PLAYER1;
#X obj 41 309 *~ 0.2;
#X obj 41 337 dac~;
#X msg 480 290 transpose \$1;
#X floatatom 480 269 5 0 0 0 - - -;
#X text 96 225 first \, soundfiles must be tagged with their midi frequency
(they have to be "tuned"), f 26;
#X text 435 328 play PLAYER_VOICENB BANK_NB NOTE_NB [KEY];
#X obj 460 90 t f f;
#X obj 460 133 t b f;
#X obj 460 154 random;
#X obj 460 175 pack f f;
#X obj 371 268 pack f f 2;
#X msg 371 291 play \$1 \$3 \$2 0;
#X msg 458 239 2;
#X msg 430 239 1;
#X obj 460 196 unpack f f;
#X msg 460 69 1;
#X msg 491 68 2;
#X obj 460 112 getnbnotes;
#X obj 371 120 bng 15 250 50 0 empty empty empty 17 7 0 10 -262144
-1 -1;
#X msg 69 101 symbol \$1/notebank/WAVS;
#X text 38 371 soundfiles must be named: 1.wav 2.wav...;
#X text 39 383 and must reside in: NOTEBANK-DATASDIR/bankName;
#X obj 424 33 tgl 15 0 empty empty play_each_quarter_note 17 7 0 10
-4034 -1 -1 0 1;
#X obj 371 32 r CLOCK;
#X obj 371 78 spigot;
#X obj 371 99 b;
#X obj 371 54 ndmetro 4 1;
#X obj 22 6 declare -path notebank;
#X connect 0 0 8 0;
#X connect 1 0 37 0;
#X connect 4 0 5 0;
#X connect 4 0 5 1;
#X connect 6 0 8 0;
#X connect 8 0 7 0;
#X connect 8 1 1 0;
#X connect 11 0 12 0;
#X connect 12 0 13 0;
#X connect 12 1 28 1;
#X connect 13 0 14 0;
#X connect 14 0 15 0;
#X connect 15 0 13 1;
#X connect 15 0 28 0;
#X connect 16 0 11 0;
#X connect 17 0 18 0;
#X connect 18 0 19 0;
#X connect 18 0 19 1;
#X connect 20 0 10 0;
#X connect 21 0 20 0;
#X connect 24 0 35 0;
#X connect 24 1 27 1;
#X connect 25 0 26 0;
#X connect 25 1 26 1;
#X connect 26 0 27 0;
#X connect 27 0 32 0;
#X connect 28 0 29 0;
#X connect 29 0 10 0;
#X connect 30 0 28 2;
#X connect 31 0 28 2;
#X connect 32 0 11 0;
#X connect 32 1 28 2;
#X connect 33 0 24 0;
#X connect 34 0 24 0;
#X connect 35 0 25 0;
#X connect 36 0 16 0;
#X connect 37 0 2 0;
#X connect 40 0 42 1;
#X connect 41 0 44 0;
#X connect 42 0 43 0;
#X connect 43 0 36 0;
#X connect 44 0 42 0;
#X restore 30 324 pd NOTEBANK_example;
#N canvas 530 111 647 699 RHYTHMIC_example 0;
#X obj 22 28 declare -path AutoPreset;
#X obj 20 96 bng 15 250 50 0 empty empty load 17 7 0 10 -4034 -1 -1
;
#X obj 293 96 bng 15 250 50 0 empty empty save 17 7 0 10 -258113 -1
-1;
#X obj 20 75 loadbang;
#X obj 354 40 r CLOCK;
#X floatatom 368 124 5 0 0 0 - - -;
#X obj 479 85 pack 4 4;
#X obj 497 63 t b f;
#X obj 479 106 unpack f;
#X msg 468 37 8;
#X msg 386 82 nd \$1 \$2;
#X msg 439 37 6;
#X msg 540 35 2;
#X msg 570 35 3;
#X msg 600 35 4;
#X msg 512 35 1;
#X msg 409 37 4;
#X obj 354 661 dac~, f 7;
#X obj 354 194 sel 1;
#X obj 354 147 spigot;
#X obj 399 146 tgl 15 0 empty empty empty 17 7 0 10 -4034 -1 -1 0 1
;
#X obj 391 195 bng 15 80 50 0 empty empty empty 17 7 0 10 -262144 -1
-1;
#X obj 24 166 hsl 128 15 0 1 0 0 empty empty empty -2 -8 0 10 -262144
-1 -1 0 1;
#X text 416 20 nb_steps;
#X text 510 19 clock_divide;
#X obj 22 7 declare -path effects -path rhythmic -path moonlib;
#X obj 354 430 apflang RHYTHM-A fl1;
#X obj 416 493 apecho RHYTHM-A echo1;
#X obj 424 571 aprev RHYTHM-A r1;
#X obj 354 216 rhythmicInstrumentExample RHYTHM-A inst1;
#X obj 479 127 s RYTHM-rhythm1-nbsteps;
#X obj 21 186 MORPHgroup RHYTHM A;
#X obj 19 142 rhythmicPatterns RHYTHM rhythm1;
#X obj 20 116 apmasterfile RHYTHM exampleSettings/RHYTHM.txt;
#X obj 20 54 apmaster RHYTHM;
#X obj 354 170 patternRead RHYTHM-rhythm1 1;
#X obj 354 101 ndmetro 8 4;
#X connect 1 0 33 0;
#X connect 2 0 33 1;
#X connect 3 0 1 0;
#X connect 4 0 36 0;
#X connect 6 0 8 0;
#X connect 6 0 10 0;
#X connect 7 0 6 0;
#X connect 7 1 6 1;
#X connect 8 0 30 0;
#X connect 9 0 6 0;
#X connect 10 0 36 0;
#X connect 11 0 6 0;
#X connect 12 0 7 0;
#X connect 13 0 7 0;
#X connect 14 0 7 0;
#X connect 15 0 7 0;
#X connect 16 0 6 0;
#X connect 18 0 21 0;
#X connect 18 0 29 0;
#X connect 19 0 35 0;
#X connect 20 0 19 1;
#X connect 22 0 31 0;
#X connect 26 0 17 0;
#X connect 26 0 17 1;
#X connect 26 0 27 0;
#X connect 26 0 28 0;
#X connect 27 0 17 1;
#X connect 27 0 17 0;
#X connect 27 0 28 0;
#X connect 28 0 17 0;
#X connect 28 1 17 1;
#X connect 29 0 26 0;
#X connect 35 0 18 0;
#X connect 36 0 5 0;
#X connect 36 0 19 0;
#X restore 28 404 pd RHYTHMIC_example;
#X obj 235 295 loadbang;
#X connect 0 0 2 0;
#X connect 0 0 28 0;
#X connect 1 0 0 0;
#X connect 4 0 6 0;
#X connect 5 0 4 0;
#X connect 7 0 3 0;
#X connect 9 0 8 0;
#X connect 10 0 3 0;
#X connect 12 0 13 0;
#X connect 14 0 20 0;
#X connect 16 0 20 0;
#X connect 17 0 23 1;
#X connect 18 0 14 0;
#X connect 18 1 16 0;
#X connect 21 0 15 0;
#X connect 22 0 25 0;
#X connect 23 0 18 0;
#X connect 24 0 23 0;
#X connect 25 0 24 0;
#X connect 34 0 14 0;
