#N canvas 476 551 450 300 10;
#X obj 51 31 inlet step;
#X obj 135 31 inlet patternNb;
#X obj 272 31 inlet patternsName;
#X obj 78 103 tabread \$1-table;
#X obj 51 52 t f b;
#X obj 272 52 symbol;
#X msg 272 73 set \$1-table;
#X msg 51 134 1 \$1;
#X obj 51 155 <<;
#X obj 51 176 &, f 5;
#X obj 51 197 != 0;
#X obj 51 218 outlet;
#X obj 78 78 f \$2, f 10;
#X connect 0 0 4 0;
#X connect 1 0 12 1;
#X connect 2 0 5 0;
#X connect 3 0 9 1;
#X connect 4 0 7 0;
#X connect 4 1 12 0;
#X connect 5 0 6 0;
#X connect 6 0 3 0;
#X connect 7 0 8 0;
#X connect 8 0 9 0;
#X connect 9 0 10 0;
#X connect 10 0 11 0;
#X connect 12 0 3 0;
