#N canvas 658 162 653 670 10;
#X declare -path ../effects/utils;
#X declare -path ../effects;
#X declare -path creb;
#X obj 322 14 declare -path ../effects/utils;
#X obj 322 34 declare -path ../effects;
#X obj 322 53 declare -path creb;
#X obj 32 592 lop~ 3000;
#X obj 31 638 outlet~;
#X obj 71 22 inlet;
#X obj 32 612 hip~ 10;
#X obj 32 301 *~, f 13;
#X obj 207 59 * 1000;
#X obj 157 53 * 100;
#X obj 32 235 osc~ 80;
#X msg 71 79 0;
#X obj 32 213 *~ 120, f 21;
#X obj 155 190 mtof;
#X obj 33 170 *~;
#X msg 60 170 1 \$1;
#X obj 60 189 -;
#X obj 33 191 +~;
#X obj 44 258 noise~;
#X obj 71 54 t b b, f 6;
#X obj 254 144 * 40;
#X obj 157 2 r \$1-\$2-attack-snd;
#X obj 207 21 r \$1-\$2-decay-snd;
#X obj 33 146 r \$1-\$2-env2f-snd;
#X obj 155 101 r \$1-\$2-freq-snd;
#X obj 155 167 gammeRound /GAMME;
#X obj 90 259 r \$1-\$2-noise-snd;
#X obj 44 279 mull~ 0 10, f 16;
#X obj 108 79 ead~ 1 100, f 17;
#X obj 167 337 hsl 80 20 0 1 0 0 \$1-\$2-autotune-snd \$1-\$2-autotune-rcv
autotune 2 10 0 10 -262144 -1 -1 4400 1;
#X obj 167 360 hsl 80 20 0 1 0 0 \$1-\$2-freq-snd \$1-\$2-freq-rcv
freq 2 10 0 10 -262144 -1 -1 4000 1;
#X obj 167 412 hsl 80 20 0 1 0 0 \$1-\$2-attack-snd \$1-\$2-attack-rcv
attack 2 10 0 10 -262144 -1 -1 0 1;
#X obj 167 435 hsl 80 20 0 1 0 0 \$1-\$2-decay-snd \$1-\$2-decay-rcv
decay 2 10 0 10 -262144 -1 -1 5600 1;
#X obj 167 383 hsl 80 20 0 1 0 0 \$1-\$2-env2f-snd \$1-\$2-env2f-rcv
env2f 2 10 0 10 -262144 -1 -1 1900 1;
#X obj 167 468 hsl 80 20 0 1 0 0 \$1-\$2-noise-snd \$1-\$2-noise-rcv
noise 2 10 0 10 -262144 -1 -1 4800 1;
#X obj 167 495 hsl 80 20 0 1 0 0 \$1-\$2-volume-snd \$1-\$2-volume-rcv
volume 2 10 0 10 -258113 -1 -1 6800 1;
#X obj 334 333 apf \$1 \$2-autotune \$1-\$2-autotune;
#X obj 334 353 apf \$1 \$2-freq \$1-\$2-freq;
#X obj 334 374 apf \$1 \$2-env2f \$1-\$2-env2f;
#X obj 335 414 apf \$1 \$2-attack \$1-\$2-attack;
#X obj 335 434 apf \$1 \$2-decay \$1-\$2-decay;
#X obj 334 471 apf \$1 \$2-noise \$1-\$2-noise;
#X obj 334 491 apf \$1 \$2-volume \$1-\$2-volume;
#X obj 32 571 mull~ 0 10;
#X obj 60 550 pow 2;
#X obj 60 529 r \$1-\$2-volume-snd;
#X obj 254 122 r \$1-\$2-autotune-snd;
#X obj 155 145 + 30;
#X obj 155 123 * 50;
#X obj 157 27 pow 3;
#X obj 207 40 pow 2;
#X obj 32 336 apcheb \$1 \$2-cheb1;
#X obj 32 390 apdisto \$1 \$2-disto1;
#X obj 32 444 apeq \$1 \$2-ortho1;
#X connect 3 0 6 0;
#X connect 5 0 19 0;
#X connect 6 0 4 0;
#X connect 7 0 51 0;
#X connect 8 0 28 2;
#X connect 9 0 28 1;
#X connect 10 0 7 0;
#X connect 11 0 10 1;
#X connect 12 0 10 0;
#X connect 13 0 12 1;
#X connect 14 0 17 0;
#X connect 15 0 16 0;
#X connect 16 0 17 1;
#X connect 17 0 12 0;
#X connect 18 0 27 0;
#X connect 19 0 11 0;
#X connect 19 1 28 0;
#X connect 20 0 25 1;
#X connect 21 0 49 0;
#X connect 22 0 50 0;
#X connect 23 0 14 0;
#X connect 23 0 15 0;
#X connect 24 0 48 0;
#X connect 25 0 13 0;
#X connect 26 0 27 1;
#X connect 27 0 7 0;
#X connect 28 0 7 1;
#X connect 28 0 14 1;
#X connect 43 0 3 0;
#X connect 44 0 43 1;
#X connect 45 0 44 0;
#X connect 46 0 20 0;
#X connect 47 0 25 0;
#X connect 48 0 47 0;
#X connect 49 0 9 0;
#X connect 50 0 8 0;
#X connect 51 0 52 0;
#X connect 52 0 53 0;
#X connect 53 0 43 0;
#X coords 0 -1 1 1 220 205 1 30 320;
