#N canvas 11 319 553 383 10;
#X msg 221 315 color 16 13 14;
#X msg 31 313 color 5 13 21;
#X msg 126 317 color 6 13 21;
#X obj 33 26 r \$2-\$3-\$4-note\$1-snd;
#X obj 33 116 list prepend 0;
#X obj 114 52 loadbang;
#X obj 114 73 f \$1;
#X obj 114 94 - 1;
#X obj 31 202 spigot;
#X obj 31 181 r \$2-\$3-melophrase-step;
#X obj 79 202 r \$2-\$3-\$4-melophrase-selected;
#X obj 31 246 == \$1;
#X obj 31 223 + 1;
#X obj 31 267 change;
#X obj 79 223 sel 0;
#X msg 79 244 0;
#X obj 31 349 s \$2-\$3-\$4-note\$1-rcv;
#X obj 218 8 r \$2-setap-snd;
#X obj 218 29 route _all_;
#X obj 218 50 route _loaded_;
#X obj 313 131 f \$1;
#X obj 313 152 - 1;
#X obj 218 71 b;
#X obj 218 92 del 100;
#X obj 313 196 s \$2-\$3-\$4-note\$1-rcv;
#X obj 313 110 r \$2-\$3-\$4-update;
#X obj 31 292 sel 0 2 1, f 48;
#X obj 33 137 s \$2-\$3-\$4-table;
#X obj 313 173 tabread \$2-\$3-\$4-table;
#X connect 0 0 16 0;
#X connect 1 0 16 0;
#X connect 2 0 16 0;
#X connect 3 0 4 0;
#X connect 4 0 27 0;
#X connect 5 0 6 0;
#X connect 6 0 7 0;
#X connect 7 0 4 1;
#X connect 8 0 12 0;
#X connect 9 0 8 0;
#X connect 10 0 8 1;
#X connect 10 0 14 0;
#X connect 11 0 13 0;
#X connect 12 0 11 0;
#X connect 13 0 26 0;
#X connect 14 0 15 0;
#X connect 15 0 13 0;
#X connect 17 0 18 0;
#X connect 18 0 19 0;
#X connect 19 0 22 0;
#X connect 20 0 21 0;
#X connect 21 0 28 0;
#X connect 22 0 23 0;
#X connect 25 0 20 0;
#X connect 26 0 1 0;
#X connect 26 1 2 0;
#X connect 26 2 0 0;
#X connect 28 0 24 0;
#X coords 0 383 1 382 208 234 0;
