#N canvas 138 237 666 514 10;
#X obj 39 63 inlet;
#X obj 39 158 ndmetro 4 4;
#X obj 241 88 inlet;
#X obj 241 175 pack s s f, f 19;
#X obj 319 149 t b f;
#X obj 272 148 t b s;
#X obj 141 113 loadbang;
#X obj 141 134 list append \$1 \$2 \$3;
#X msg 241 196 set \$1-\$2-\$3-table;
#X obj 241 218 s \$0-table;
#X obj 166 300 r \$0-table;
#X obj 157 319 tabread;
#X msg 157 280 16;
#X obj 242 300 r \$0-table;
#X obj 233 319 tabread;
#X obj 320 300 r \$0-table;
#X obj 310 319 tabread;
#X obj 48 353 r \$0-table;
#X obj 39 372 tabread;
#X obj 157 259 t b b b, f 26;
#X obj 233 340 /, f 13;
#X msg 233 280 18;
#X msg 310 280 17;
#X obj 157 340 pack f f;
#X obj 157 196 r \$0-table;
#X obj 157 217 b;
#X obj 157 238 del 1;
#X msg 157 361 nd \$1 \$2;
#X obj 198 112 bng 15 250 50 0 empty empty empty 17 7 0 10 -262144
-1 -1;
#X obj 39 179 t f b;
#X obj 414 219 t a a;
#X obj 414 296 s;
#X msg 441 242 symbol \$1-\$2-melophrase-phrase;
#X msg 414 269 \$3;
#X obj 157 456 s;
#X msg 172 432 symbol \$1-\$2-melophrase-step;
#X obj 39 105 t a b;
#X obj 39 393 outlet;
#X obj 105 38 tgl 15 0 \$0-show \$0-show show 17 7 0 10 -257985 -1
-1 1 1;
#X obj 241 109 route ref id num play show;
#X obj 372 149 s \$0-play;
#X obj 385 131 s \$0-show;
#X obj 55 38 tgl 15 0 \$0-play \$0-play play 17 7 0 10 -4034 -1 -1
1 1;
#X obj 39 133 spigot;
#X obj 103 62 r \$0-play;
#X obj 103 83 sel 0;
#X msg 103 104 -1;
#X obj 157 411 spigot;
#X obj 190 391 r \$0-show;
#X connect 0 0 36 0;
#X connect 1 0 29 0;
#X connect 2 0 39 0;
#X connect 3 0 8 0;
#X connect 3 0 30 0;
#X connect 3 0 35 0;
#X connect 4 0 3 0;
#X connect 4 1 3 2;
#X connect 5 0 3 0;
#X connect 5 1 3 1;
#X connect 6 0 7 0;
#X connect 7 0 3 0;
#X connect 8 0 9 0;
#X connect 10 0 11 0;
#X connect 11 0 23 0;
#X connect 12 0 11 0;
#X connect 13 0 14 0;
#X connect 14 0 20 0;
#X connect 15 0 16 0;
#X connect 16 0 20 1;
#X connect 17 0 18 0;
#X connect 18 0 37 0;
#X connect 19 0 12 0;
#X connect 19 1 21 0;
#X connect 19 2 22 0;
#X connect 20 0 23 1;
#X connect 21 0 14 0;
#X connect 22 0 16 0;
#X connect 23 0 27 0;
#X connect 24 0 25 0;
#X connect 25 0 26 0;
#X connect 26 0 19 0;
#X connect 27 0 1 0;
#X connect 28 0 7 0;
#X connect 29 0 18 0;
#X connect 29 0 47 0;
#X connect 30 0 33 0;
#X connect 30 1 32 0;
#X connect 32 0 31 1;
#X connect 33 0 31 0;
#X connect 35 0 34 1;
#X connect 36 0 43 0;
#X connect 36 1 19 0;
#X connect 39 0 3 0;
#X connect 39 1 5 0;
#X connect 39 2 4 0;
#X connect 39 3 40 0;
#X connect 39 4 41 0;
#X connect 43 0 1 0;
#X connect 44 0 45 0;
#X connect 44 0 43 1;
#X connect 45 0 46 0;
#X connect 46 0 1 0;
#X connect 47 0 34 0;
#X connect 48 0 47 1;
#X coords 0 -1 1 1 100 35 1 50 20;
