#N canvas 114 206 732 542 10;
#X declare -lib creb -path creb -path ../rj;
#X obj 18 9 inlet;
#X obj 18 52 outlet~;
#X obj 379 56 apf \$1 \$2-A \$0-A;
#X obj 379 74 apf \$1 \$2-D \$0-D;
#X obj 379 91 apf \$1 \$2-S \$0-S;
#X obj 379 109 apf \$1 \$2-R \$0-R;
#X obj 379 214 apf \$1 \$2-fA \$0-fA;
#X obj 379 232 apf \$1 \$2-fD \$0-fD;
#X obj 379 249 apf \$1 \$2-fS \$0-fS;
#X obj 379 267 apf \$1 \$2-fR \$0-fR;
#X obj 378 298 apf \$1 \$2-transpose \$0-transpose;
#X obj 379 134 apf \$1 \$2-fF \$0-fF;
#X obj 379 152 apf \$1 \$2-fQ \$0-fQ;
#X obj 379 169 apf \$1 \$2-fSat \$0-fSat;
#X obj 379 187 apf \$1 \$2-fFollow \$0-fFollow;
#X obj 378 316 apf \$1 \$2-portamento \$0-portamento;
#X obj 377 359 apf \$1 \$2-vA \$0-vA;
#X obj 377 377 apf \$1 \$2-vF \$0-vF;
#X obj 377 395 apf \$1 \$2-vW \$0-vW;
#X obj 378 335 apf \$1 \$2-wf \$0-wf;
#X obj 377 413 apf \$1 \$2-volume \$0-volume;
#N canvas 228 221 818 749 audio 0;
#X obj 18 30 route stop;
#X obj 118 596 eadsr~, f 38;
#X msg 18 62 0;
#X msg 75 71 1;
#X obj 18 99 s \$0-play;
#X obj 118 513 r \$0-play;
#X obj 102 142 pack f f, f 26;
#X obj 102 163 line~;
#X obj 102 184 mtof~;
#X obj 102 389 +~;
#X obj 103 715 outlet~;
#X obj 103 480 bob~, f 72;
#X floatatom 209 435 5 1 10 0 - - -;
#X msg 209 455 oversample \$1;
#X obj 209 394 loadbang;
#X msg 209 414 2;
#X msg 118 453 saturation \$1;
#X msg 531 438 \$1 10;
#X obj 531 459 line~;
#X obj 182 516 r \$0-A-snd;
#X obj 182 537 pow 2;
#X obj 182 558 * 1000;
#X obj 250 529 pow 2;
#X obj 250 508 r \$0-D-snd;
#X obj 296 554 pow 2;
#X obj 296 533 r \$0-S-snd;
#X obj 366 529 pow 2;
#X obj 366 508 r \$0-R-snd;
#X obj 102 650 *~;
#X obj 162 672 pow 2;
#X obj 102 690 *~;
#X msg 162 693 \$1 20;
#X obj 162 714 line~;
#X obj 162 648 r \$0-volume-snd;
#X obj 102 77 +;
#X obj 140 11 r \$0-transpose-snd;
#X obj 140 32 * 2;
#X obj 140 52 - 1;
#X obj 140 73 * 24;
#X obj 102 122 gammeRound /GAMME 10;
#X obj 102 98 + 0.314159;
#X obj 262 51 * 50;
#X obj 262 30 pow 3;
#X obj 366 550 * 4000;
#X obj 250 550 * 2000;
#X obj 18 9 inlet;
#X obj 382 94 eadsr~, f 38;
#X obj 382 11 r \$0-play;
#X obj 446 32 pow 2;
#X obj 446 53 * 1000;
#X obj 519 32 pow 2;
#X obj 569 67 pow 2;
#X obj 639 42 pow 2;
#X obj 639 63 * 4000;
#X obj 519 53 * 2000;
#X obj 446 11 r \$0-fA-snd;
#X obj 519 11 r \$0-fD-snd;
#X obj 569 46 r \$0-fS-snd;
#X obj 639 21 r \$0-fR-snd;
#X obj 262 9 r \$0-autotune-snd;
#X obj 531 393 r \$0-fQ-snd;
#X obj 255 101 pow 2;
#X obj 255 122 * 2000;
#X obj 255 80 r \$0-portamento-snd;
#X obj 531 415 * 5;
#X obj 396 138 * 130;
#X obj 118 412 r \$0-fSat-snd;
#X obj 118 433 * 3;
#X obj 515 144 r \$0-fFollow-snd;
#X obj 515 165 * 2;
#X obj 515 185 - 1;
#X obj 382 205 *~;
#X msg 396 160 \$1 10;
#X obj 396 181 line~;
#X obj 317 433 mtof~;
#X obj 396 117 r \$0-fE-snd;
#X obj 439 165 * 130;
#X msg 439 187 \$1 10;
#X obj 439 208 line~;
#X obj 439 144 r \$0-fF-snd;
#X obj 381 232 +~, f 10;
#X obj 382 286 +~, f 16;
#X msg 515 207 \$1 10;
#X obj 515 228 line~;
#X obj 475 264 *~, f 7;
#X obj 382 307 clip~ 0 130;
#X obj 581 559 r \$0-vA-snd;
#X obj 528 517 r \$0-vF-snd;
#X obj 528 538 pow 2;
#X obj 528 559 * 20;
#X obj 528 638 osc~;
#X obj 528 659 *~, f 9;
#X obj 581 580 pow 2;
#X obj 581 601 * 2;
#X obj 528 680 *~, f 22;
#X obj 719 515 r \$0-vW-snd;
#X obj 719 536 pow 2;
#X obj 656 516 r \$0-play;
#X obj 656 537 sel 1;
#X obj 656 558 f;
#X msg 656 579 0 \, 1 \$1;
#X obj 656 600 line~;
#X obj 656 621 *~;
#X obj 528 584 *~;
#X obj 719 557 * 2000;
#X obj 102 326 s_blsquare;
#X obj 171 325 s_blsaw;
#X obj 299 282 line~;
#X msg 299 261 \$1 50;
#X obj 299 242 r \$0-wf-snd;
#X obj 102 347 *~;
#X obj 299 303 *~ -1;
#X obj 299 324 +~ 1;
#X obj 171 345 *~, f 18;
#X obj 213 244 r \$0-pwmO-snd;
#X obj 251 158 r \$0-pwmA-snd;
#X obj 149 163 r \$0-pwmF-snd;
#X obj 149 184 pow 2;
#X obj 149 205 * 20;
#X obj 527 608 +~ 0.25;
#X obj 149 225 + 0.25;
#X obj 149 246 osc~;
#X obj 149 267 *~, f 6;
#X obj 149 288 +~, f 8;
#X obj 204 225 line~;
#X msg 204 204 \$1 20;
#X obj 213 287 line~;
#X msg 213 266 \$1 20;
#X obj 251 179 pow 2;
#X msg 27 226 0;
#X msg 70 244 0.25;
#X obj 27 205 loadbang;
#X obj 174 578 + 0.5;
#X obj 230 573 + 0.5;
#X obj 344 574 + 0.5;
#X obj 446 74 + 0.5;
#X obj 501 73 + 0.5;
#X obj 639 85 + 0.5;
#X obj 382 328 lop~ 4000;
#X obj 118 617 lop~ 4000;
#X obj 219 100 f;
#X obj 75 51 t b f b;
#X connect 0 0 2 0;
#X connect 0 1 141 0;
#X connect 1 0 139 0;
#X connect 2 0 4 0;
#X connect 3 0 4 0;
#X connect 5 0 1 0;
#X connect 6 0 7 0;
#X connect 7 0 8 0;
#X connect 7 0 84 0;
#X connect 8 0 105 0;
#X connect 8 0 106 0;
#X connect 9 0 11 0;
#X connect 11 0 28 0;
#X connect 12 0 13 0;
#X connect 13 0 11 0;
#X connect 14 0 15 0;
#X connect 15 0 12 0;
#X connect 16 0 11 0;
#X connect 17 0 18 0;
#X connect 18 0 11 2;
#X connect 19 0 20 0;
#X connect 20 0 21 0;
#X connect 21 0 132 0;
#X connect 22 0 44 0;
#X connect 23 0 22 0;
#X connect 24 0 1 3;
#X connect 25 0 24 0;
#X connect 26 0 43 0;
#X connect 27 0 26 0;
#X connect 28 0 30 0;
#X connect 29 0 31 0;
#X connect 30 0 10 0;
#X connect 31 0 32 0;
#X connect 32 0 30 1;
#X connect 33 0 29 0;
#X connect 34 0 40 0;
#X connect 35 0 36 0;
#X connect 36 0 37 0;
#X connect 37 0 38 0;
#X connect 38 0 34 1;
#X connect 39 0 6 0;
#X connect 40 0 39 0;
#X connect 41 0 140 1;
#X connect 42 0 41 0;
#X connect 43 0 134 0;
#X connect 44 0 133 0;
#X connect 45 0 0 0;
#X connect 46 0 71 0;
#X connect 47 0 46 0;
#X connect 48 0 49 0;
#X connect 49 0 135 0;
#X connect 50 0 54 0;
#X connect 51 0 46 3;
#X connect 52 0 53 0;
#X connect 53 0 137 0;
#X connect 54 0 136 0;
#X connect 55 0 48 0;
#X connect 56 0 50 0;
#X connect 57 0 51 0;
#X connect 58 0 52 0;
#X connect 59 0 42 0;
#X connect 60 0 64 0;
#X connect 61 0 62 0;
#X connect 62 0 6 1;
#X connect 63 0 61 0;
#X connect 64 0 17 0;
#X connect 65 0 72 0;
#X connect 66 0 67 0;
#X connect 67 0 16 0;
#X connect 68 0 69 0;
#X connect 69 0 70 0;
#X connect 70 0 82 0;
#X connect 71 0 80 0;
#X connect 72 0 73 0;
#X connect 73 0 71 1;
#X connect 74 0 11 1;
#X connect 75 0 65 0;
#X connect 76 0 77 0;
#X connect 77 0 78 0;
#X connect 78 0 80 1;
#X connect 79 0 76 0;
#X connect 80 0 81 0;
#X connect 81 0 85 0;
#X connect 82 0 83 0;
#X connect 83 0 84 1;
#X connect 84 0 81 1;
#X connect 85 0 138 0;
#X connect 86 0 92 0;
#X connect 87 0 88 0;
#X connect 88 0 89 0;
#X connect 89 0 103 0;
#X connect 90 0 91 0;
#X connect 91 0 94 0;
#X connect 92 0 93 0;
#X connect 93 0 91 1;
#X connect 94 0 8 0;
#X connect 95 0 96 0;
#X connect 96 0 104 0;
#X connect 97 0 98 0;
#X connect 98 0 99 0;
#X connect 99 0 100 0;
#X connect 100 0 101 0;
#X connect 101 0 102 0;
#X connect 101 0 102 1;
#X connect 102 0 94 1;
#X connect 102 0 103 1;
#X connect 103 0 119 0;
#X connect 104 0 99 1;
#X connect 105 0 110 0;
#X connect 106 0 113 0;
#X connect 107 0 111 0;
#X connect 107 0 110 1;
#X connect 108 0 107 0;
#X connect 109 0 108 0;
#X connect 110 0 9 0;
#X connect 111 0 112 0;
#X connect 112 0 113 1;
#X connect 113 0 9 0;
#X connect 114 0 127 0;
#X connect 115 0 128 0;
#X connect 116 0 117 0;
#X connect 117 0 118 0;
#X connect 118 0 120 0;
#X connect 119 0 90 0;
#X connect 120 0 121 0;
#X connect 121 0 122 0;
#X connect 122 0 123 0;
#X connect 123 0 105 1;
#X connect 124 0 122 1;
#X connect 125 0 124 0;
#X connect 126 0 123 1;
#X connect 127 0 126 0;
#X connect 128 0 125 0;
#X connect 129 0 105 2;
#X connect 129 0 130 0;
#X connect 130 0 106 1;
#X connect 131 0 129 0;
#X connect 132 0 1 1;
#X connect 133 0 1 2;
#X connect 134 0 1 4;
#X connect 135 0 46 1;
#X connect 136 0 46 2;
#X connect 137 0 46 4;
#X connect 138 0 74 0;
#X connect 139 0 28 1;
#X connect 140 0 39 1;
#X connect 141 0 3 0;
#X connect 141 0 129 0;
#X connect 141 1 34 0;
#X connect 141 2 140 0;
#X restore 18 30 pd audio;
#X obj 51 120 cnv 15 222 230 empty empty empty 20 12 0 14 -257985 -66577
0;
#X obj 58 124 hsl 100 15 0 1 0 0 \$0-A-snd \$0-A-rcv attack 5 8 0 10
-16662 -262144 -162280 0 1;
#X obj 58 141 hsl 100 15 0 1 0 0 \$0-D-snd \$0-D-rcv decay 5 8 0 10
-16662 -262144 -162280 4600 1;
#X obj 58 158 hsl 100 15 0 1 0 0 \$0-S-snd \$0-S-rcv sustain 5 8 0
10 -16662 -262144 -162280 6400 1;
#X obj 58 175 hsl 100 15 0 1 0 0 \$0-R-snd \$0-R-rcv release 5 8 0
10 -16662 -262144 -162280 6602 1;
#X obj 167 213 hsl 100 15 0 1 0 0 \$0-fA-snd \$0-fA-rcv filter_attack
5 8 0 10 -13330 -262144 -162280 0 1;
#X obj 167 230 hsl 100 15 0 1 0 0 \$0-fD-snd \$0-fD-rcv filter_decay
5 8 0 10 -13330 -262144 -162280 8400 1;
#X obj 167 247 hsl 100 15 0 1 0 0 \$0-fS-snd \$0-fS-rcv filter_sustain
5 8 0 10 -13330 -262144 -162280 3100 1;
#X obj 167 264 hsl 100 15 0 1 0 0 \$0-fR-snd \$0-fR-rcv filter_release
5 8 0 10 -13330 -262144 -162280 2998 1;
#X obj 167 299 hsl 100 15 0 1 0 0 \$0-portamento-snd \$0-portamento-rcv
portamento 5 8 0 10 -86277 -262144 -162280 1746 1;
#X obj 167 124 hsl 100 15 0 1 0 0 \$0-fF-snd \$0-fF-rcv filter_freq
5 8 0 10 -13330 -262144 -162280 1161 1;
#X obj 167 141 hsl 100 15 0 1 0 0 \$0-fQ-snd \$0-fQ-rcv filter_Q 5
8 0 10 -13330 -262144 -162280 5600 1;
#X obj 167 158 hsl 100 15 0 1 0 0 \$0-fSat-snd \$0-fSat-rcv filter_satur
5 8 0 10 -13330 -262144 -162280 2700 1;
#X obj 167 175 hsl 100 15 0 1 0 0 \$0-fFollow-snd \$0-fFollow-rcv filter_follow
5 8 0 10 -13330 -262144 -162280 9000 1;
#X obj 58 196 hsl 100 15 0 1 0 0 \$0-vA-snd \$0-vA-rcv vibrato_amp
5 8 0 10 -45076 -262144 -162280 6019 1;
#X obj 58 213 hsl 100 15 0 1 0 0 \$0-vF-snd \$0-vF-rcv vibrato_freq
5 8 0 10 -45076 -262144 -162280 6838 1;
#X obj 167 282 hsl 100 15 0 1 0 0 \$0-transpose-snd \$0-transpose-rcv
transpose 5 8 0 10 -86277 -262144 -162280 7800 1;
#X obj 58 230 hsl 100 15 0 1 0 0 \$0-vW-snd \$0-vW-rcv vibrato_wait
5 8 0 10 -45076 -262144 -162280 3255 1;
#X obj 58 249 hsl 100 15 0 1 0 0 \$0-wf-snd \$0-wf-rcv wavform 5 8
0 10 -83269 -262144 -162280 9900 1;
#X obj 167 333 hsl 100 15 0 1 0 0 \$0-volume-snd \$0-volume-rcv volume
5 8 0 10 -258113 -66577 -262144 9700 1;
#X obj 167 316 hsl 100 15 0 1 0 0 \$0-autotune-snd \$0-autotune-rcv
autotune 5 8 0 10 -86277 -262144 -162280 9900 1;
#X obj 55 318 cnv 15 105 30 empty empty empty 20 12 0 14 -1 -66577
0;
#X obj 377 433 apf \$1 \$2-autotune \$0-autotune;
#X obj 167 194 hsl 100 15 0 1 0 0 \$0-fE-snd \$0-fE-rcv filter_env
5 8 0 10 -13330 -262144 -162280 1600 1;
#X obj 497 135 apf \$1 \$2-fE \$0-fE;
#X obj 58 266 hsl 100 15 0 1 0 0 \$0-pwmO-snd \$0-pwmO-rcv pwm_offset
5 8 0 10 -83269 -262144 -162280 5300 1;
#X obj 58 283 hsl 100 15 0 1 0 0 \$0-pwmA-snd \$0-pwmA-rcv pwm_lfoamp
5 8 0 10 -83269 -262144 -162280 3000 1;
#X obj 58 300 hsl 100 15 0 1 0 0 \$0-pwmF-snd \$0-pwmF-rcv pwm_lfofreq
5 8 0 10 -83269 -262144 -162280 1134 1;
#X obj 377 456 apf \$1 \$2-pwmO \$0-pwmO;
#X obj 377 474 apf \$1 \$2-pwmA \$0-pwmA;
#X obj 377 493 apf \$1 \$2-pwmF \$0-pwmF;
#X obj 149 11 declare -lib creb -path creb -path ../rj;
#X connect 0 0 21 0;
#X connect 21 0 1 0;
#X coords 0 -1 1 1 224 252 1 50 100;
