#N canvas 68 329 376 203 10;
#X declare -stdpath moonlib -path moonlib;
#X declare -path utils;
#N canvas 446 327 590 518 guts 0;
#N canvas 559 531 450 192 getnote 0;
#X obj 141 111 tabread;
#X obj 172 39 r \$0-bank;
#X msg 172 80 set noteaccord-\$1;
#X obj 141 17 r \$0-note;
#X obj 141 135 outlet;
#X obj 172 60 + 1;
#X obj 141 38 + 1;
#X floatatom 103 74 5 0 0 0 - - -;
#X floatatom 92 146 5 0 0 0 - - -;
#X connect 0 0 4 0;
#X connect 0 0 8 0;
#X connect 1 0 5 0;
#X connect 2 0 0 0;
#X connect 3 0 6 0;
#X connect 5 0 2 0;
#X connect 6 0 0 0;
#X connect 7 0 0 0;
#X restore 441 134 pd getnote;
#X obj 34 29 r \$0-bank;
#X obj 34 50 + 1;
#X obj 59 246 s \$0-note-rcv;
#X msg 59 217 number \$1 \, color 0 22 22;
#X msg 100 189 number 1 \, color 0 0 22;
#X obj 34 111 s notebanks;
#X obj 34 139 r notebanks-snd;
#X obj 34 190 route 0;
#X obj 34 73 t f f;
#X msg 155 246 label bank-\$1;
#X msg 34 287 label bank-\$1:\$3;
#X obj 34 267 list prepend;
#X msg 34 92 \$1 getprops;
#X obj 34 160 route props;
#X obj 283 255 +~;
#N canvas 802 121 590 453 playsample 0;
#X obj 98 49 r \$0-bank;
#X obj 67 27 r \$0-note;
#X obj 98 70 + 1;
#X obj 67 48 + 1;
#X obj 67 167 tabplay~;
#X obj 66 276 *~;
#X obj 81 210 pow 2;
#X msg 81 232 \$1 10;
#X obj 81 254 line~;
#X obj 81 186 r \$0-volsample;
#X obj 67 92 pack f f;
#X msg 67 113 set NT-\$2-\$1 \, bang;
#X obj 196 111 r \$0-play;
#X obj 66 297 outlet~;
#X obj 244 299 t f b, f 6;
#X obj 244 324 +;
#X obj 244 345 f;
#X obj 244 366 /;
#X obj 187 246 spigot;
#X msg 304 295 0;
#X msg 220 199 1;
#X msg 190 200 0;
#X obj 220 177 t b b;
#X obj 244 387 outlet;
#X obj 277 325 f;
#X obj 277 346 + 1;
#X obj 187 267 moses 20;
#X obj 244 268 moses 110;
#X text 326 280 mean midinote on sample;
#X text 326 266 note midi moyenne sur le sample;
#X msg 182 154 stop;
#X obj 220 154 del 200;
#X obj 187 225 sigmund~ -npts 512 -stabletime 200 pitch;
#X connect 0 0 2 0;
#X connect 1 0 3 0;
#X connect 1 0 31 0;
#X connect 2 0 10 1;
#X connect 3 0 10 0;
#X connect 4 0 5 0;
#X connect 4 0 32 0;
#X connect 4 1 21 0;
#X connect 4 1 30 0;
#X connect 5 0 13 0;
#X connect 6 0 7 0;
#X connect 7 0 8 0;
#X connect 8 0 5 1;
#X connect 9 0 6 0;
#X connect 10 0 11 0;
#X connect 11 0 4 0;
#X connect 12 0 4 0;
#X connect 14 0 15 0;
#X connect 14 1 24 0;
#X connect 15 0 16 0;
#X connect 16 0 15 1;
#X connect 16 0 17 0;
#X connect 17 0 23 0;
#X connect 18 0 26 0;
#X connect 19 0 24 1;
#X connect 19 0 15 1;
#X connect 20 0 18 1;
#X connect 21 0 18 1;
#X connect 22 0 20 0;
#X connect 22 1 19 0;
#X connect 24 0 25 0;
#X connect 25 0 17 1;
#X connect 25 0 24 1;
#X connect 26 1 27 0;
#X connect 27 0 14 0;
#X connect 30 0 31 0;
#X connect 31 0 22 0;
#X connect 32 0 18 0;
#X restore 283 74 pd playsample;
#N canvas 963 491 210 324 playsynth 0;
#X obj 30 270 *~;
#X obj 45 204 pow 2;
#X msg 45 226 \$1 10;
#X obj 45 248 line~;
#X obj 30 291 outlet~;
#X obj 45 180 r \$0-volsynth;
#X obj 31 17 inlet;
#X obj 31 93 mtof;
#X obj 31 116 ssaw~;
#X obj 31 137 lop~;
#X obj 31 158 hip~ 80;
#X obj 77 115 * 5;
#X obj 31 38 -;
#X obj 61 37 r \$0-accordoffset;
#X connect 0 0 4 0;
#X connect 1 0 2 0;
#X connect 2 0 3 0;
#X connect 3 0 0 1;
#X connect 5 0 1 0;
#X connect 6 0 12 0;
#X connect 7 0 8 0;
#X connect 7 0 11 0;
#X connect 8 0 9 0;
#X connect 9 0 10 0;
#X connect 10 0 0 0;
#X connect 11 0 9 1;
#X connect 12 0 7 0;
#X connect 13 0 12 1;
#X restore 301 223 pd playsynth;
#X obj 405 94 r \$0-synthsrc;
#X obj 441 155 f;
#X obj 405 156 f;
#X msg 441 176 0 \$1;
#X msg 405 177 1 \$1;
#X obj 405 198 route 0, f 19;
#X obj 405 220 s \$0-accord-rcv;
#X obj 405 115 t b f, f 19;
#X obj 301 202 r \$0-accord;
#X obj 274 348 r \$0-accord;
#X obj 259 370 f;
#X obj 259 320 r \$0-save;
#X obj 259 391 list prepend;
#X obj 259 439 list prepend;
#X obj 259 414 list prepend setaccord;
#X obj 399 414 r \$0-bank;
#X obj 399 435 + 1;
#X obj 342 391 + 1;
#X obj 342 371 r \$0-note;
#X obj 259 460 s notebanks;
#X obj 42 430 r show-accorder;
#X msg 42 451 vis 0 \, vis 1;
#X obj 42 472 s accorder-canvas;
#X obj 132 17 declare -stdpath moonlib -path moonlib;
#X floatatom 514 220 5 0 0 0 - - -;
#X msg 331 242 label accord:\$1;
#X obj 331 263 s \$0-accord-rcv;
#X obj 41 363 r \$0-on;
#X obj 41 384 switch~;
#X obj 155 126 tabread;
#X obj 155 65 r \$0-bank;
#X obj 155 86 + 1;
#X floatatom 155 147 5 0 0 0 - - -;
#X obj 155 166 s \$0-accordoffset;
#X obj 373 73 r \$0-accordoffset;
#X obj 358 94 +;
#X obj 34 313 s \$0-banklabel;
#X obj 398 25 clone 4 _bank_button 10 \$0;
#X obj 283 282 outlet~;
#X obj 398 43 clone 8 _note_button 10 \$0;
#X obj 178 308 s \$0-nbnotes;
#X msg 178 286 0;
#X msg 151 286 \$1;
#X obj 132 38 declare -path utils;
#X msg 155 106 set props-\$1 \, 1;
#X connect 0 0 19 0;
#X connect 1 0 2 0;
#X connect 2 0 9 0;
#X connect 5 0 3 0;
#X connect 7 0 14 0;
#X connect 8 0 4 0;
#X connect 8 0 12 0;
#X connect 8 0 60 0;
#X connect 9 0 13 0;
#X connect 9 1 5 0;
#X connect 9 1 8 1;
#X connect 9 1 12 1;
#X connect 9 1 10 0;
#X connect 9 1 59 0;
#X connect 10 0 54 0;
#X connect 11 0 54 0;
#X connect 12 0 11 0;
#X connect 13 0 6 0;
#X connect 14 0 8 0;
#X connect 15 0 56 0;
#X connect 16 0 15 0;
#X connect 16 1 53 0;
#X connect 17 0 15 0;
#X connect 18 0 25 0;
#X connect 19 0 21 0;
#X connect 20 0 22 0;
#X connect 21 0 23 0;
#X connect 22 0 23 0;
#X connect 23 0 24 0;
#X connect 23 0 42 0;
#X connect 25 0 20 0;
#X connect 25 0 19 0;
#X connect 25 1 23 1;
#X connect 26 0 17 0;
#X connect 26 0 43 0;
#X connect 27 0 28 1;
#X connect 28 0 30 0;
#X connect 29 0 28 0;
#X connect 30 0 32 0;
#X connect 31 0 37 0;
#X connect 32 0 31 0;
#X connect 33 0 34 0;
#X connect 34 0 31 1;
#X connect 35 0 30 1;
#X connect 36 0 35 0;
#X connect 38 0 39 0;
#X connect 39 0 40 0;
#X connect 43 0 44 0;
#X connect 45 0 46 0;
#X connect 47 0 50 0;
#X connect 48 0 49 0;
#X connect 49 0 62 0;
#X connect 50 0 51 0;
#X connect 52 0 53 1;
#X connect 53 0 20 0;
#X connect 59 0 58 0;
#X connect 60 0 58 0;
#X connect 62 0 47 0;
#X restore 23 209 pd guts;
#X obj 74 208 namecanvas accorder-canvas;
#X obj 7 3 cnv 15 350 190 empty \$0-banklabel bank-5:CollectionFlute
40 12 0 12 -233017 -1 0;
#X obj 62 24 hradio 12 1 0 10 \$0-bank0 \$0-bank0-rcv 1-10 -26 5 0
10 -262144 -1 -1 4;
#X obj 111 96 bng 20 250 50 0 \$0-play empty play 0 -7 0 10 -4034 -1
-1;
#X obj 18 96 hsl 80 20 0 1 0 1 \$0-volsample empty volume-sample -2
-6 0 10 -262144 -1 -1 3000 1;
#X obj 19 134 hsl 80 20 0 1 0 1 \$0-volsynth empty volume-synthé -2
-6 0 10 -262144 -1 -1 1800 1;
#X obj 111 123 vradio 20 1 0 2 \$0-synthsrc \$0-synthsrc-rcv empty
0 -8 0 10 -262144 -1 -1 0;
#X text 132 125 original;
#X text 132 145 analyse;
#X obj 17 170 hsl 240 20 30 100 0 0 \$0-accord \$0-accord-rcv accord:81.841
-2 -6 0 10 -257985 -1 -1 17700 1;
#X obj 264 170 bng 20 250 50 0 \$0-save empty save 0 -7 0 10 -258113
-1 -1;
#X obj 9 7 tgl 20 0 \$0-on empty ON 4 10 0 10 -260097 -1 -1 0 1;
#X obj 62 36 hradio 12 1 0 10 \$0-bank1 \$0-bank1-rcv 11-20 -32 5 0
10 -262144 -262144 -1 1;
#X obj 62 48 hradio 12 1 0 10 \$0-bank2 \$0-bank2-rcv 21-30 -32 5 0
10 -262144 -262144 -1 6;
#X obj 62 60 hradio 12 1 0 10 \$0-bank3 \$0-bank3-rcv 31-40 -32 5 0
10 -262144 -262144 -1 3;
#X obj 23 230 outlet~;
#X obj 231 25 hradio 12 1 0 10 \$0-note0 \$0-note0-rcv 1-10 -26 5 0
10 -262144 -1 -1 2;
#X obj 231 37 hradio 12 1 0 10 \$0-note1 \$0-note1-rcv 11-20 -32 5
0 10 -262144 -262144 -1 9;
#X obj 231 49 hradio 12 1 0 1 \$0-note2 \$0-note2-rcv 21-30 -32 5 0
10 -262144 -262144 -1 9;
#X obj 231 61 hradio 12 1 0 1 \$0-note3 \$0-note3-rcv 31-40 -32 5 0
10 -262144 -262144 -1 6;
#X obj 231 73 hradio 12 1 0 1 \$0-note4 \$0-note4-rcv 41-50 -32 5 0
10 -262144 -262144 -1 6;
#X obj 231 85 hradio 12 1 0 1 \$0-note5 \$0-note5-rcv 51-60 -32 5 0
10 -262144 -262144 -1 6;
#X obj 231 97 hradio 12 1 0 1 \$0-note6 \$0-note6-rcv 61-70 -32 5 0
10 -262144 -262144 -1 4;
#X obj 231 109 hradio 12 1 0 1 \$0-note7 \$0-note7-rcv 71-80 -32 5
0 10 -262144 -262144 -1 3;
#X connect 0 0 16 0;
