#N canvas 662 233 394 279 10;
#X obj 37 195 soundfiler;
#X msg 37 172 read -resize \$1 \$2;
#X obj 184 176 loadbang;
#X obj 37 79 symbol;
#X obj 46 57 bng 15 250 50 0 empty empty empty 17 7 0 10 -262144 -1
-1;
#X msg 37 128 symbol \$1/\$2/\$3.wav;
#X obj 37 104 list append \$3 \$1;
#X obj 37 150 list append NT-\$2-\$1;
#X obj 37 221 tabwrite notelength-\$2, f 25;
#X obj 184 198 f \$1;
#X obj 237 55 table NT-\$2-\$1;
#X text 35 10 notetable id_sample id_bank dir(relatively to DATASDIR)
;
#X obj 70 59 r NOTEBANK-DATASDIR;
#X obj 37 36 r NOTEBANK-LOADTABLES;
#X connect 0 0 8 0;
#X connect 1 0 0 0;
#X connect 2 0 9 0;
#X connect 3 0 6 0;
#X connect 4 0 3 0;
#X connect 5 0 7 0;
#X connect 6 0 5 0;
#X connect 7 0 1 0;
#X connect 9 0 8 1;
#X connect 12 0 3 1;
#X connect 13 0 3 0;
