#N canvas 626 262 664 613 10;
#X declare -path utils;
#X obj 24 79 table notelength-\$1 \$2;
#X obj 26 174 tabread notelength-\$1;
#X floatatom 26 196 8 0 0 0 - - -;
#X obj 26 152 hradio 15 1 0 10 empty empty empty 0 -8 0 10 -262144
-1 -1 0;
#X obj 24 105 table noteaccord-\$1 \$2;
#X obj 242 110 s noteaccord-\$1;
#X obj 24 231 r notebanks;
#X obj 24 252 route \$1;
#X obj 242 62 list append \$3;
#X obj 243 137 loadbang;
#X obj 243 158 pack 0 \$2;
#X obj 243 177 s notelength-\$1;
#X text 306 156 notelength-BANKID[0]=num_samples;
#X obj 223 137 bng 15 250 50 0 empty empty empty 17 7 0 10 -262144
-1 -1;
#X obj 24 468 s noteaccord-\$1;
#X obj 51 442 s noteaccord-\$1;
#X obj 51 341 b;
#X msg 51 421 write \$1/\$2/notes.txt;
#X obj 51 362 list prepend \$3;
#X obj 80 341 bng 15 250 50 0 empty empty empty 17 7 0 10 -262144 -1
-1;
#X msg 242 86 const 0 \, read \$1/\$2/notes.txt;
#X obj 178 356 s notebanks-snd;
#X obj 178 293 b;
#X obj 178 315 list prepend props \$1 \$2 \$3;
#X obj 178 336 list trim;
#X obj 25 37 clone -s 1 notetable \$2 \$1 \$3;
#X obj 51 321 del 1000;
#X obj 24 273 route setaccord getprops, f 52;
#X text 62 299 auto-save;
#X obj 24 299 t a b;
#X obj 386 293 s notelength-\$1;
#X obj 397 270 s noteaccord-\$1;
#X msg 397 245 resize \$1;
#X obj 397 203 f \$2;
#X obj 397 224 + 1;
#X obj 375 368 loadbang;
#X obj 375 389 t b b;
#X obj 411 412 f \$5;
#X obj 375 411 f \$4;
#X obj 375 432 sel 0;
#X msg 375 453 1;
#X obj 375 474 pack f f;
#X obj 352 369 bng 15 250 50 0 empty empty empty 17 7 0 10 -262144
-1 -1;
#X obj 375 495 list prepend 0;
#X obj 375 516 s props-\$1;
#X obj 23 126 table props-\$1 2;
#X msg 265 453 0 \$1;
#X obj 265 477 s props-\$1;
#X floatatom 258 412 5 0 0 0 - - -;
#X msg 304 450 1 \$1;
#X floatatom 315 408 5 0 0 0 - - -;
#X msg 188 482 48000;
#X obj 188 503 / 44100;
#X obj 188 524 ftom;
#X floatatom 132 555 8 0 0 0 - - -;
#X msg 154 484 1;
#X obj 188 545 + 36.3763;
#X floatatom 188 566 8 0 0 0 - - -;
#X obj 242 40 r NOTEBANK-DATASDIR;
#X text 21 10 notebank id_bank(start from 1) number_of_samples dir(relatively
to NOTEBANK-DATASDIR [volume [pitch]], f 103;
#X obj 138 380 r NOTEBANK-DATASDIR;
#X obj 51 400 list prepend --;
#X obj 418 47 declare -path utils;
#X connect 1 0 2 0;
#X connect 3 0 1 0;
#X connect 6 0 7 0;
#X connect 7 0 27 0;
#X connect 8 0 20 0;
#X connect 9 0 10 0;
#X connect 9 0 33 0;
#X connect 10 0 11 0;
#X connect 13 0 10 0;
#X connect 16 0 18 0;
#X connect 17 0 15 0;
#X connect 18 0 61 0;
#X connect 19 0 18 0;
#X connect 20 0 5 0;
#X connect 22 0 23 0;
#X connect 23 0 24 0;
#X connect 24 0 21 0;
#X connect 26 0 16 0;
#X connect 27 0 29 0;
#X connect 27 1 22 0;
#X connect 29 0 14 0;
#X connect 29 1 26 0;
#X connect 32 0 31 0;
#X connect 32 0 30 0;
#X connect 33 0 34 0;
#X connect 34 0 32 0;
#X connect 35 0 36 0;
#X connect 36 0 38 0;
#X connect 36 1 37 0;
#X connect 37 0 41 1;
#X connect 38 0 39 0;
#X connect 39 0 40 0;
#X connect 39 1 41 0;
#X connect 40 0 41 0;
#X connect 41 0 43 0;
#X connect 42 0 36 0;
#X connect 43 0 44 0;
#X connect 46 0 47 0;
#X connect 48 0 46 0;
#X connect 49 0 47 0;
#X connect 50 0 49 0;
#X connect 51 0 52 0;
#X connect 52 0 53 0;
#X connect 53 0 54 0;
#X connect 53 0 56 0;
#X connect 55 0 53 0;
#X connect 56 0 57 0;
#X connect 58 0 8 0;
#X connect 60 0 61 1;
#X connect 61 0 17 0;
