#N canvas 436 386 874 397 10;
#X declare -path ../gammabs;
#X obj 46 12 loadbang;
#X obj 73 56 ggee/getdir;
#X msg 73 78 symbol \$1/WAVS;
#X obj 73 99 s NOTEBANK-DATASDIR;
#X obj 45 158 notebank 1 4 bankA;
#X obj 45 209 accorder;
#X obj 45 236 dac~;
#X obj 25 13 bng 15 250 50 0 empty empty empty 17 7 0 10 -262144 -1
-1;
#X obj 46 122 s NOTEBANK-LOADTABLES;
#X obj 46 33 t b b;
#X obj 45 178 notebank 2 3 bankB;
#X msg 305 249 145;
#X obj 305 147 loadbang;
#X msg 441 72 play 0 1 \$1 0;
#X obj 441 29 hradio 15 1 0 4 empty empty empty 0 -8 0 10 -262144 -1
-1 3;
#X obj 441 49 + 1;
#X floatatom 305 312 5 0 0 0 - - -;
#X msg 339 250 545;
#X obj 538 279 s PLAYER1;
#X obj 538 113 + 1;
#X obj 538 134 t b f;
#X obj 538 155 i;
#X obj 538 176 + 1;
#X obj 538 197 mod 10;
#X msg 538 92 0 \, 1 \, 2;
#X obj 45 271 clone 10 noteplayer PLAYER1;
#X obj 45 292 *~ 0.2;
#X obj 45 320 dac~;
#X obj 305 209 tgl 15 0 empty empty empty 17 7 0 10 -262144 -1 -1 0
1;
#X obj 305 188 metro 2000;
#X obj 305 229 sel 0 1, f 12;
#X obj 305 169 tgl 15 0 empty empty empty 17 7 0 10 -262144 -1 -1 1
1;
#X msg 647 240 transpose \$1;
#X obj 538 30 tgl 15 0 empty empty empty 17 7 0 10 -262144 -1 -1 0
1;
#X obj 538 49 metro 500;
#X floatatom 647 219 5 0 0 0 - - -;
#X text 19 357 soundfiles must be named: 1.wav 2.wav...;
#X text 20 369 and must reside in: NOTEBANK-DATASDIR/bankName;
#X text 100 208 first \, soundfiles must be tagged with their midi
frequency (they have to be "tuned"), f 26;
#X obj 304 80 GAMMEKBV \$0-GAMME;
#X obj 305 270 s \$0-GAMME;
#X obj 305 291 r \$0-GAMME;
#X obj 736 198 loadbang;
#X obj 736 219 symbol \$0-GAMME;
#X obj 806 195 bng 15 250 50 0 empty empty empty 17 7 0 10 -262144
-1 -1;
#X msg 736 240 gamme \$1;
#X text 602 292 gamme GAMME_NAME;
#X text 602 335 stop;
#X text 603 350 stopkey KEY;
#X text 602 278 play PLAYER_VOICENB BANK_NB NOTE_NB [KEY];
#X text 602 307 transpose SEMITONES;
#X text 602 321 vibratone MIDI_DEVIATION;
#X obj 627 40 t f f;
#X obj 627 83 t b f;
#X obj 627 104 random;
#X obj 627 125 pack f f;
#X obj 538 218 pack f f 2;
#X msg 538 241 play \$1 \$3 \$2 0;
#X msg 625 189 2;
#X msg 597 189 1;
#X obj 627 146 unpack f f;
#X msg 627 19 1;
#X msg 658 18 2;
#X obj 627 62 getnbnotes;
#X obj 538 70 bng 15 250 50 0 empty empty empty 17 7 0 10 -262144 -1
-1;
#X obj 191 14 declare -path ../gammabs;
#X connect 0 0 9 0;
#X connect 1 0 2 0;
#X connect 2 0 3 0;
#X connect 5 0 6 0;
#X connect 5 0 6 1;
#X connect 7 0 9 0;
#X connect 9 0 8 0;
#X connect 9 1 1 0;
#X connect 11 0 40 0;
#X connect 12 0 31 0;
#X connect 13 0 18 0;
#X connect 14 0 15 0;
#X connect 15 0 13 0;
#X connect 17 0 40 0;
#X connect 19 0 20 0;
#X connect 20 0 21 0;
#X connect 20 1 56 1;
#X connect 21 0 22 0;
#X connect 22 0 23 0;
#X connect 23 0 21 1;
#X connect 23 0 56 0;
#X connect 24 0 19 0;
#X connect 25 0 26 0;
#X connect 26 0 27 0;
#X connect 26 0 27 1;
#X connect 28 0 30 0;
#X connect 29 0 28 0;
#X connect 30 0 11 0;
#X connect 30 1 17 0;
#X connect 31 0 29 0;
#X connect 32 0 18 0;
#X connect 33 0 34 0;
#X connect 34 0 64 0;
#X connect 35 0 32 0;
#X connect 41 0 16 0;
#X connect 42 0 43 0;
#X connect 43 0 45 0;
#X connect 44 0 43 0;
#X connect 45 0 18 0;
#X connect 52 0 63 0;
#X connect 52 1 55 1;
#X connect 53 0 54 0;
#X connect 53 1 54 1;
#X connect 54 0 55 0;
#X connect 55 0 60 0;
#X connect 56 0 57 0;
#X connect 57 0 18 0;
#X connect 58 0 56 2;
#X connect 59 0 56 2;
#X connect 60 0 19 0;
#X connect 60 1 56 2;
#X connect 61 0 52 0;
#X connect 62 0 52 0;
#X connect 63 0 53 0;
#X connect 64 0 24 0;
