#N canvas 588 95 507 758 10;
#X declare -path ../gammabs;
#X obj 27 24 r \$2;
#X obj 27 718 outlet~;
#X msg 213 125 set NT-\$1-\$2;
#X obj 26 640 tabread4~;
#X msg 72 125 set noteaccord-\$1 \, \$2;
#X msg 27 166 set notelength-\$1 \, \$2;
#X obj 27 102 t a a a, f 16;
#X obj 27 186 tabread;
#X obj 72 144 tabread;
#X obj 27 207 pack f f;
#X obj 27 228 unpack f f;
#X obj 84 251 t f f;
#X obj 84 328 -;
#X obj 84 401 mtof;
#X obj 84 448 swap 1;
#X obj 84 470 /;
#X obj 27 553 pack f f;
#X obj 27 476 t f f;
#X obj 54 498 *;
#X msg 27 574 0 \, \$1 \$2;
#X obj 27 604 line~;
#X obj 84 307 gammeRound /GAMME 300;
#X obj 84 423 / 8.175;
#X obj 54 519 / 44.1;
#X msg 39 276 set \$1;
#X obj 39 253 symbol;
#X obj 194 382 change;
#X obj 144 566 *;
#X obj 176 519 t f f;
#X obj 183 631 pack f f;
#X obj 144 541 +;
#X obj 144 520 * -1;
#X msg 183 651 \$2 \$1;
#X obj 144 608 moses 1;
#X obj 144 587 / 44.1;
#X obj 144 498 snapshot~;
#X obj 144 477 t b f, f 15;
#X obj 194 444 line;
#X obj 84 279 +;
#X obj 194 402 pack f f;
#X obj 194 423 t a b;
#X msg 237 424 100;
#X msg 239 378 0;
#X obj 26 689 *~;
#X obj 270 657 line~;
#X msg 330 629 0 50;
#X obj 27 66 route \$1;
#X obj 244 97 b;
#X obj 216 206 array get 0 2;
#X obj 216 175 t b a;
#X msg 291 182 symbol props-\$1;
#X obj 216 227 unpack f f;
#X text 284 227 vol pitch;
#X obj 84 350 +;
#X obj 270 573 f 1;
#X obj 270 551 b;
#X floatatom 291 272 5 0 0 0 - - -;
#X obj 198 223 bng 15 250 50 0 empty empty empty 17 7 0 10 -262144
-1 -1;
#X msg 270 629 0 \, \$1 10;
#X obj 317 72 route -1;
#X obj 244 71 route \$1 -1;
#X text 46 86 bank note key;
#X msg 337 122 \$3;
#X floatatom 337 143 5 0 0 0 - - -;
#X obj 84 379 +;
#X obj 135 378 t b f;
#X obj 27 45 route play gamme transpose stop stopkey vibrato, f 73
;
#X obj 389 289 f;
#X obj 191 14 declare -path ../gammabs;
#X obj 270 594 * 1;
#X obj 433 90 route vol;
#X connect 0 0 66 0;
#X connect 2 0 3 0;
#X connect 3 0 43 0;
#X connect 4 0 8 0;
#X connect 5 0 7 0;
#X connect 6 0 5 0;
#X connect 6 1 4 0;
#X connect 6 2 2 0;
#X connect 6 2 42 0;
#X connect 6 2 49 0;
#X connect 6 2 55 0;
#X connect 6 2 62 0;
#X connect 7 0 9 0;
#X connect 8 0 9 1;
#X connect 9 0 10 0;
#X connect 10 0 17 0;
#X connect 10 1 11 0;
#X connect 11 0 38 0;
#X connect 11 1 12 1;
#X connect 12 0 53 0;
#X connect 13 0 22 0;
#X connect 14 0 15 0;
#X connect 14 1 15 1;
#X connect 15 0 18 1;
#X connect 15 0 26 0;
#X connect 16 0 19 0;
#X connect 17 0 16 0;
#X connect 17 1 18 0;
#X connect 17 1 28 0;
#X connect 18 0 23 0;
#X connect 19 0 20 0;
#X connect 20 0 35 0;
#X connect 20 0 3 0;
#X connect 21 0 12 0;
#X connect 22 0 14 0;
#X connect 23 0 16 1;
#X connect 24 0 21 0;
#X connect 25 0 24 0;
#X connect 26 0 39 0;
#X connect 27 0 34 0;
#X connect 28 0 30 1;
#X connect 28 1 29 1;
#X connect 29 0 32 0;
#X connect 30 0 27 0;
#X connect 31 0 30 0;
#X connect 32 0 20 0;
#X connect 33 1 29 0;
#X connect 34 0 33 0;
#X connect 35 0 31 0;
#X connect 36 0 35 0;
#X connect 36 1 27 1;
#X connect 37 0 36 0;
#X connect 38 0 21 0;
#X connect 39 0 40 0;
#X connect 40 0 37 0;
#X connect 40 1 41 0;
#X connect 41 0 39 1;
#X connect 42 0 39 1;
#X connect 43 0 1 0;
#X connect 44 0 43 1;
#X connect 45 0 44 0;
#X connect 46 0 6 0;
#X connect 47 0 45 0;
#X connect 48 0 51 0;
#X connect 49 0 48 0;
#X connect 49 0 57 0;
#X connect 49 1 50 0;
#X connect 50 0 48 2;
#X connect 51 0 54 1;
#X connect 51 0 56 0;
#X connect 51 1 53 1;
#X connect 53 0 64 0;
#X connect 54 0 69 0;
#X connect 55 0 54 0;
#X connect 58 0 44 0;
#X connect 59 0 47 0;
#X connect 60 0 47 0;
#X connect 60 1 47 0;
#X connect 62 0 63 0;
#X connect 62 0 59 1;
#X connect 64 0 13 0;
#X connect 65 0 64 0;
#X connect 65 1 64 1;
#X connect 66 0 46 0;
#X connect 66 1 25 0;
#X connect 66 2 38 1;
#X connect 66 3 60 0;
#X connect 66 4 59 0;
#X connect 66 5 67 0;
#X connect 66 6 70 0;
#X connect 67 0 65 0;
#X connect 69 0 58 0;
#X connect 70 0 69 1;
