#N canvas 981 168 368 357 10;
#X obj 140 24 r \$1;
#X obj 140 46 f;
#X obj 177 24 inlet on;
#X obj 27 28 inlet ctler;
#X obj 27 109 spigot;
#X obj 27 267 spigot;
#X obj 27 289 t f f;
#X msg 66 238 1;
#X msg 98 238 0;
#X obj 140 68 sel 1;
#X obj 27 311 outlet;
#X obj 27 50 t f f f;
#X obj 158 177 change;
#X obj 158 133 abs;
#X obj 244 25 inlet value;
#X obj 158 155 < 0.005;
#X obj 158 111 - 0;
#X obj 66 142 < 0;
#X msg 207 117 set 0;
#X obj 66 204 change;
#X obj 108 148 >;
#X obj 81 122 t f f;
#X msg 108 169 set \$1;
#X connect 0 0 1 0;
#X connect 1 0 4 1;
#X connect 1 0 9 0;
#X connect 2 0 1 0;
#X connect 3 0 11 0;
#X connect 4 0 5 0;
#X connect 5 0 6 0;
#X connect 6 0 10 0;
#X connect 7 0 5 1;
#X connect 8 0 5 1;
#X connect 9 0 8 0;
#X connect 9 0 18 0;
#X connect 11 0 4 0;
#X connect 11 1 17 0;
#X connect 11 1 20 1;
#X connect 11 2 16 0;
#X connect 12 0 7 0;
#X connect 13 0 15 0;
#X connect 14 0 16 1;
#X connect 14 0 21 0;
#X connect 15 0 12 0;
#X connect 16 0 13 0;
#X connect 17 0 19 0;
#X connect 18 0 12 0;
#X connect 19 0 7 0;
#X connect 20 0 22 0;
#X connect 21 0 17 1;
#X connect 21 1 20 0;
#X connect 22 0 19 0;
