#N canvas 378 390 263 290 10;
#X declare -path AutoPreset;
#X obj 25 195 outlet;
#X obj 20 6 declare -path AutoPreset;
#X obj 52 116 apf \$1 \$2 \$1-\$2 2;
#X obj 25 93 t f f;
#X obj 25 38 inlet value;
#X obj 129 37 inlet on;
#X msg 71 164 1;
#X obj 52 137 t f b f;
#X obj 25 67 thresPot \$3 \$4;
#X obj 129 58 change -1;
#X connect 2 0 7 0;
#X connect 3 0 0 0;
#X connect 3 1 2 0;
#X connect 4 0 8 0;
#X connect 5 0 9 0;
#X connect 6 0 8 1;
#X connect 7 0 0 0;
#X connect 7 1 6 0;
#X connect 7 2 2 0;
#X connect 8 0 3 0;
#X connect 9 0 8 1;
