#N canvas 1 189 324 270 10;
#X declare -path AutoPreset;
#X obj 25 227 outlet;
#X obj 20 6 declare -path AutoPreset;
#X obj 50 86 apf \$1 \$2 \$1-\$2 2;
#X obj 25 59 t f f;
#X obj 25 175 crossPot2;
#X obj 25 38 inlet value;
#X obj 134 39 inlet on;
#X obj 203 43 loadbang;
#X msg 203 64 1;
#X obj 50 107 t b f b;
#X msg 50 128 1;
#X msg 85 127 0;
#X connect 2 0 0 0;
#X connect 2 0 9 0;
#X connect 3 0 4 0;
#X connect 3 1 2 0;
#X connect 4 0 0 0;
#X connect 5 0 3 0;
#X connect 6 0 4 1;
#X connect 7 0 8 0;
#X connect 8 0 4 1;
#X connect 9 0 10 0;
#X connect 9 1 4 2;
#X connect 9 2 11 0;
#X connect 10 0 4 1;
#X connect 11 0 4 1;
