#N canvas 408 298 432 474 10;
#X declare -path AutoPreset;
#X obj 30 16 declare -path AutoPreset;
#X obj 95 64 r SYNCER/r;
#X obj 95 108 list split 1;
#X obj 129 131 list trim;
#X obj 95 86 route state;
#X obj 129 175 symbol;
#X symbolatom 64 209 10 0 0 0 - - -;
#X obj 129 154 route /SONG /UNLOCKSNAP;
#X obj 286 210 spigot;
#X obj 66 292 getdir 2;
#X obj 129 207 s /SONG;
#X obj 66 249 r /SONG;
#X obj 66 356 pack s s, f 18;
#X obj 31 149 loadbang;
#X msg 31 170 symbol unknown;
#X obj 66 269 t b s, f 18;
#X msg 66 379 loadfile \$1/\$2;
#X obj 286 64 inlet SAVE;
#X obj 286 230 t b;
#X obj 286 251 symbol;
#X obj 319 229 r /SONG;
#X obj 286 294 getdir 2;
#X obj 286 357 pack s s, f 18;
#X obj 286 271 t b s, f 18;
#X obj 196 179 s /UNLOCKSNAP;
#X obj 30 38 apmaster \$1;
#X obj 66 404 s \$1-apmaster-rcv;
#X obj 286 405 s \$1-apmaster-rcv;
#X obj 186 228 tgl 15 0 empty empty empty 17 7 0 10 -262144 -1 -1 0
1;
#X msg 286 380 savefile \$1/\$2;
#X obj 319 188 r /UNLOCKSNAP;
#X obj 8 426 print SONG;
#X obj 286 315 list append \$1 \$2;
#X obj 66 313 list append \$1 \$2;
#X msg 66 335 symbol \$1/\$3/\$2;
#X msg 286 336 symbol \$1/\$3/\$2;
#X connect 1 0 4 0;
#X connect 2 1 3 0;
#X connect 3 0 7 0;
#X connect 4 0 2 0;
#X connect 5 0 6 0;
#X connect 5 0 10 0;
#X connect 7 0 5 0;
#X connect 7 1 24 0;
#X connect 8 0 18 0;
#X connect 9 0 33 0;
#X connect 11 0 15 0;
#X connect 12 0 16 0;
#X connect 13 0 14 0;
#X connect 14 0 5 0;
#X connect 15 0 9 0;
#X connect 15 1 12 1;
#X connect 16 0 26 0;
#X connect 17 0 8 0;
#X connect 18 0 19 0;
#X connect 19 0 23 0;
#X connect 20 0 19 1;
#X connect 21 0 32 0;
#X connect 22 0 29 0;
#X connect 23 0 21 0;
#X connect 23 1 22 1;
#X connect 29 0 27 0;
#X connect 30 0 8 1;
#X connect 32 0 35 0;
#X connect 33 0 34 0;
#X connect 34 0 12 0;
#X connect 35 0 22 0;
