#N canvas 285 309 285 377 10;
#X obj 140 46 f;
#X obj 177 24 inlet on;
#X obj 27 28 inlet ctler;
#X obj 27 267 spigot;
#X obj 27 289 t f f;
#X msg 93 235 1;
#X msg 155 232 0;
#X obj 140 68 sel 1;
#X obj 27 311 outlet;
#X obj 93 162 abs;
#X obj 93 140 - 0;
#X msg 127 184 set 0;
#X obj 93 206 change;
#X obj 93 184 > \$1;
#X obj 27 50 t f f f;
#X obj 108 119 f;
#X obj 27 120 spigot 1;
#X floatatom 60 190 5 0 0 0 - - -, f 5;
#X obj 140 24 r \$2;
#X connect 0 0 7 0;
#X connect 0 0 16 1;
#X connect 1 0 0 0;
#X connect 2 0 14 0;
#X connect 3 0 4 0;
#X connect 4 0 8 0;
#X connect 5 0 3 1;
#X connect 6 0 3 1;
#X connect 7 0 6 0;
#X connect 7 0 11 0;
#X connect 7 0 15 0;
#X connect 9 0 13 0;
#X connect 9 0 17 0;
#X connect 10 0 9 0;
#X connect 11 0 12 0;
#X connect 12 0 5 0;
#X connect 13 0 12 0;
#X connect 14 0 16 0;
#X connect 14 1 10 0;
#X connect 14 2 15 1;
#X connect 15 0 10 1;
#X connect 16 0 3 0;
#X connect 18 0 0 0;
