#N canvas 203 360 663 463 10;
#X declare -path creb -lib creb;
#X obj 11 24 cnv 15 103 50 empty empty empty 2 6 1 8 -1 -66577 0;
#X obj 13 26 cnv 10 30 10 empty empty Freq 2 5 1 8 -191407 -1 0;
#X obj 17 39 mknob 15 100 0 134 0 1 \$0-f-snd \$0-f-rcv midi:77 -4
21 1 9 -262144 -1 -262144 5714 1;
#X obj 47 26 cnv 10 30 10 empty empty Q 7 5 1 8 -191407 -1 0;
#X obj 52 40 mknob 15 100 0 1 0 1 \$0-q-snd \$0-q-rcv 4.6 0 21 1 8
-262144 -1 -262144 9300 1;
#X obj 332 282 mtof;
#X obj 69 57 bng 8 250 50 0 empty empty empty 0 -6 0 8 -262144 -1 -1
;
#X obj 30 370 inlet~;
#X obj 30 415 outlet~;
#X msg 504 300 label \$1;
#X obj 340 72 apsubmaster \$1-\$2 \$1 \$2;
#X obj 340 29 apf \$1-\$2 q \$0-q;
#X obj 340 8 apf \$1-\$2 f \$0-f;
#X obj 245 145 r \$0-f-snd;
#X obj 332 256 s \$0-f-rcv;
#X obj 332 303 f2s;
#X obj 504 195 r \$0-q-snd;
#X obj 504 319 s \$0-q-rcv;
#X obj 504 279 makefilename %s;
#X obj 340 94 declare -path creb -lib creb;
#X obj 30 393 bob~, f 72;
#X floatatom 85 348 5 1 10 0 - - -;
#X msg 85 368 oversample \$1;
#X obj 85 307 loadbang;
#X msg 85 327 2;
#X msg 332 235 label midi:\$1;
#X obj 308 212 i;
#X obj 13 64 cnv 10 30 10 \$0-hzcan \$0-hzcan Hz:698 2 5 1 9 -1 -262144
0;
#X msg 332 323 label Hz:\$1;
#X obj 332 344 s \$0-hzcan;
#X obj 81 26 cnv 10 30 10 empty empty Sat 7 5 1 8 -191407 -1 0;
#X obj 86 40 mknob 15 100 0 1 0 1 \$0-sat-snd \$0-sat-rcv 0.4 0 21
1 8 -262144 -1 -262144 1600 1;
#X obj 504 238 i;
#X obj 504 259 / 10;
#X msg 118 233 label \$1;
#X obj 118 212 makefilename %s;
#X obj 118 171 i;
#X obj 118 192 / 10;
#X obj 118 128 r \$0-sat-snd;
#X obj 118 150 * 30;
#X obj 118 252 s \$0-sat-rcv;
#X obj 504 217 * 50;
#X msg 100 95 0.34;
#X msg 64 91 0.3;
#X obj 340 50 apf \$1-\$2 sat \$0-sat;
#X obj 459 262 / 10;
#X obj 86 192 / 10;
#X msg 86 272 saturation \$1;
#X obj 245 235 +;
#X obj 258 215 t b f;
#X obj 362 145 inlet midi_offset;
#X obj 245 256 mtof;
#X msg 245 277 \$1 10;
#X obj 245 298 line~;
#X msg 459 284 \$1 10;
#X obj 459 305 line~;
#X connect 5 0 15 0;
#X connect 6 0 43 0;
#X connect 7 0 20 0;
#X connect 9 0 17 0;
#X connect 13 0 48 0;
#X connect 13 0 26 0;
#X connect 15 0 28 0;
#X connect 16 0 41 0;
#X connect 18 0 9 0;
#X connect 20 0 8 0;
#X connect 21 0 22 0;
#X connect 22 0 20 0;
#X connect 23 0 24 0;
#X connect 24 0 21 0;
#X connect 25 0 14 0;
#X connect 26 0 25 0;
#X connect 26 0 5 0;
#X connect 28 0 29 0;
#X connect 32 0 33 0;
#X connect 33 0 18 0;
#X connect 34 0 40 0;
#X connect 35 0 34 0;
#X connect 36 0 37 0;
#X connect 37 0 35 0;
#X connect 38 0 39 0;
#X connect 39 0 36 0;
#X connect 39 0 46 0;
#X connect 41 0 32 0;
#X connect 41 0 45 0;
#X connect 42 0 31 0;
#X connect 43 0 4 0;
#X connect 43 0 42 0;
#X connect 45 0 54 0;
#X connect 46 0 47 0;
#X connect 47 0 20 0;
#X connect 48 0 51 0;
#X connect 49 0 48 0;
#X connect 49 1 48 1;
#X connect 50 0 49 0;
#X connect 51 0 52 0;
#X connect 52 0 53 0;
#X connect 53 0 20 1;
#X connect 54 0 55 0;
#X connect 55 0 20 2;
#X coords 0 -1 1 1 105 65 1 10 10;
