#N canvas 633 112 587 394 10;
#X obj 11 11 cnv 15 157 52 \$1-\$2-STEPcan-snd \$1-\$2-STEPcan-rcv
PATTERN-\$3 20 10 1 14 -42246 -233017 0;
#X obj 10 31 cnv 15 60 29 empty empty -1---2---3---4--- 4 8 1 10 -4160
-262144 0;
#X obj 72 31 cnv 15 60 29 empty empty -5---6---7---8-- 2 8 1 10 -159808
-262144 0;
#X obj 132 31 cnv 15 28 29 empty empty -9--10- 0 8 1 10 -4160 -262144
0;
#X obj 26 43 tgl 15 0 \$0-s1-snd \$0-s1-rcv empty 17 7 0 10 -1 -262144
-262144 1 1;
#X obj 41 43 tgl 15 0 \$0-s2-snd \$0-s2-rcv empty 17 7 0 10 -262144
-262144 -233017 0 1;
#X obj 56 43 tgl 15 0 \$0-s3-snd \$0-s3-rcv empty 17 7 0 10 -262144
-262144 -233017 1 1;
#X obj 71 43 tgl 15 0 \$0-s4-snd \$0-s4-rcv empty 17 7 0 10 -262144
-262144 -233017 0 1;
#X obj 86 43 tgl 15 0 \$0-s5-snd \$0-s5-rcv empty 17 7 0 10 -262144
-262144 -233017 0 1;
#X obj 101 43 tgl 15 0 \$0-s6-snd \$0-s6-rcv empty 17 7 0 10 -262144
-262144 -233017 0 1;
#X obj 116 43 tgl 15 0 \$0-s7-snd \$0-s7-rcv empty 17 7 0 10 -1 -262144
-233017 0 1;
#X obj 131 43 tgl 15 0 \$0-s8-snd \$0-s8-rcv empty 17 7 0 10 -262144
-262144 -233017 0 1;
#X obj 146 43 tgl 15 0 \$0-s9-snd \$0-s9-rcv empty 17 7 0 10 -262144
-262144 -233017 0 1;
#X obj 11 43 tgl 15 0 \$0-s0-snd \$0-s0-rcv empty 17 7 0 10 -262144
-262144 -233017 1 1;
#X obj 207 223 route 0 1, f 19;
#X obj 207 295 &;
#X obj 262 292 |;
#X obj 207 15 r \$0-s-snd;
#X obj 207 39 unpack f;
#X msg 207 61 1 \$1;
#X obj 207 84 <<;
#X obj 207 148 &;
#X obj 207 106 t f f, f 15;
#X obj 207 196 pack f f, f 15;
#X obj 207 171 == 0;
#X obj 207 272 -;
#N canvas 146 173 672 443 color 0;
#X obj 24 61 change;
#X obj 24 107 & 1;
#X obj 77 108 & 2;
#X obj 130 107 & 4;
#X obj 183 106 & 8;
#X obj 24 301 sel 0 1;
#X obj 77 199 sel 0 1;
#X obj 24 370 s \$0-s0-rcv;
#X obj 77 268 s \$0-s1-rcv;
#X obj 130 299 sel 0 1;
#X msg 130 323 color 0 0 10;
#X obj 183 200 sel 0 1;
#X obj 235 301 sel 0 1;
#X msg 235 325 color 0 0 10;
#X obj 289 201 sel 0 1;
#X msg 289 225 color 0 0 10;
#X obj 342 299 sel 0 1;
#X obj 395 202 sel 0 1;
#X msg 395 226 color 0 0 10;
#X obj 448 302 sel 0 1;
#X obj 501 202 sel 0 1;
#X msg 501 226 color 0 0 10;
#X obj 236 107 & 16;
#X obj 289 107 & 32;
#X obj 342 107 & 64;
#X obj 395 107 & 128;
#X obj 448 108 & 256;
#X obj 501 108 & 512;
#X obj 130 368 s \$0-s2-rcv;
#X obj 183 269 s \$0-s3-rcv;
#X obj 235 370 s \$0-s4-rcv;
#X obj 289 270 s \$0-s5-rcv;
#X obj 342 368 s \$0-s6-rcv;
#X obj 395 271 s \$0-s7-rcv;
#X obj 448 371 s \$0-s8-rcv;
#X obj 501 271 s \$0-s9-rcv;
#X msg 77 222 color 0 0 10;
#X msg 183 223 color 0 0 10;
#X msg 342 322 color 0 0 10;
#X msg 448 325 color 0 0 10;
#X obj 24 86 t f f f f f f f f f f, f 80;
#X obj 24 128 != 0;
#X obj 77 128 != 0;
#X obj 130 127 != 0;
#X obj 183 127 != 0;
#X obj 236 128 != 0;
#X obj 289 128 != 0;
#X obj 342 128 != 0;
#X obj 395 128 != 0;
#X obj 448 129 != 0;
#X obj 501 129 != 0;
#X msg 43 347 color 22 0 0;
#X msg 24 325 color 0 0 10;
#X msg 149 345 color 22 0 0;
#X msg 96 245 color 22 0 0;
#X msg 203 246 color 22 0 0;
#X msg 255 347 color 22 0 0;
#X msg 308 247 color 22 0 0;
#X msg 415 249 color 22 0;
#X msg 520 248 color 22 0 0;
#X msg 467 348 color 22 0 0;
#X msg 361 345 color 22 0 0;
#X obj 24 147 change;
#X obj 77 148 change;
#X obj 130 147 change;
#X obj 183 146 change;
#X obj 236 147 change;
#X obj 289 148 change;
#X obj 342 147 change;
#X obj 395 147 change;
#X obj 448 148 change;
#X obj 501 147 change;
#X msg 16 169 set \$1;
#X msg 66 169 set \$1;
#X msg 118 169 set \$1;
#X msg 174 168 set \$1;
#X msg 228 170 set \$1;
#X msg 279 170 set \$1;
#X msg 333 170 set \$1;
#X msg 387 170 set \$1;
#X msg 440 170 set \$1;
#X msg 491 170 set \$1;
#X obj 24 38 r \$0-pattern-snd;
#X connect 0 0 40 0;
#X connect 1 0 41 0;
#X connect 2 0 42 0;
#X connect 3 0 43 0;
#X connect 4 0 44 0;
#X connect 5 0 52 0;
#X connect 5 1 51 0;
#X connect 6 0 36 0;
#X connect 6 1 54 0;
#X connect 9 0 10 0;
#X connect 9 1 53 0;
#X connect 10 0 28 0;
#X connect 11 0 37 0;
#X connect 11 1 55 0;
#X connect 12 0 13 0;
#X connect 12 1 56 0;
#X connect 13 0 30 0;
#X connect 14 0 15 0;
#X connect 14 1 57 0;
#X connect 15 0 31 0;
#X connect 16 0 38 0;
#X connect 16 1 61 0;
#X connect 17 0 18 0;
#X connect 17 1 58 0;
#X connect 18 0 33 0;
#X connect 19 0 39 0;
#X connect 19 1 60 0;
#X connect 20 0 21 0;
#X connect 20 1 59 0;
#X connect 21 0 35 0;
#X connect 22 0 45 0;
#X connect 23 0 46 0;
#X connect 24 0 47 0;
#X connect 25 0 48 0;
#X connect 26 0 49 0;
#X connect 27 0 50 0;
#X connect 36 0 8 0;
#X connect 37 0 29 0;
#X connect 38 0 32 0;
#X connect 39 0 34 0;
#X connect 40 0 1 0;
#X connect 40 1 2 0;
#X connect 40 2 3 0;
#X connect 40 3 4 0;
#X connect 40 4 22 0;
#X connect 40 5 23 0;
#X connect 40 6 24 0;
#X connect 40 7 25 0;
#X connect 40 8 26 0;
#X connect 40 9 27 0;
#X connect 41 0 62 0;
#X connect 42 0 63 0;
#X connect 43 0 64 0;
#X connect 44 0 65 0;
#X connect 45 0 66 0;
#X connect 46 0 67 0;
#X connect 47 0 68 0;
#X connect 48 0 69 0;
#X connect 49 0 70 0;
#X connect 50 0 71 0;
#X connect 51 0 7 0;
#X connect 52 0 7 0;
#X connect 53 0 28 0;
#X connect 54 0 8 0;
#X connect 55 0 29 0;
#X connect 56 0 30 0;
#X connect 57 0 31 0;
#X connect 58 0 33 0;
#X connect 59 0 35 0;
#X connect 60 0 34 0;
#X connect 61 0 32 0;
#X connect 62 0 5 0;
#X connect 62 0 72 0;
#X connect 63 0 6 0;
#X connect 63 0 73 0;
#X connect 64 0 9 0;
#X connect 64 0 74 0;
#X connect 65 0 11 0;
#X connect 65 0 75 0;
#X connect 66 0 12 0;
#X connect 66 0 76 0;
#X connect 67 0 14 0;
#X connect 67 0 77 0;
#X connect 68 0 16 0;
#X connect 68 0 78 0;
#X connect 69 0 17 0;
#X connect 69 0 79 0;
#X connect 70 0 19 0;
#X connect 70 0 80 0;
#X connect 71 0 20 0;
#X connect 71 0 81 0;
#X connect 72 0 7 0;
#X connect 73 0 8 0;
#X connect 74 0 28 0;
#X connect 75 0 29 0;
#X connect 76 0 30 0;
#X connect 77 0 31 0;
#X connect 78 0 32 0;
#X connect 79 0 33 0;
#X connect 80 0 34 0;
#X connect 81 0 35 0;
#X connect 82 0 0 0;
#X restore 12 161 pd color;
#X msg 207 247 1023 \$1;
#X obj 11 78 dispatch \$0-s 0 10;
#X obj 119 45 hsl 45 8 0 127 0 0 \$0-STEPnum-snd \$0-STEPnum-rcv empty
-2 -8 0 10 -42246 -42246 -262144 0 1;
#X obj 180 47 cnv 7 7 7 \$1-S2-CanDefile-snd \$1-\$2-CanDefile-rcv
empty 20 12 0 14 -260818 -260818 0;
#X obj 13 237 list prepend \$3;
#X obj 13 332 route \$3;
#X obj 13 134 nbx 5 14 -1e+37 1e+37 0 0 \$0-pattern-snd \$0-pattern-rcv
pattern 0 -8 0 10 -262144 -1 -1 2 256;
#X obj 13 311 r \$1-\$2-rcv;
#X obj 13 258 list trim;
#X obj 13 282 s \$1-\$2-snd;
#N canvas 445 321 399 376 showStep 0;
#X msg 33 310 color 14 14 14;
#X msg 52 291 color 11 11 11;
#X obj 33 338 s \$1-\$2-CanDefile-rcv;
#X obj 164 220 s \$1-\$2-CanDefile-rcv;
#X obj 164 12 r \$1-\$2-step;
#X obj 164 60 route \$3;
#X msg 181 83 1;
#X msg 209 83 0;
#X obj 209 104 change;
#X obj 209 125 sel 0;
#X obj 164 148 * 15;
#X msg 209 149 180;
#X obj 164 169 + 15;
#X msg 253 173 pos 15 47;
#X msg 164 196 pos \$1 47;
#X obj 66 182 r \$0-seq-snd;
#X obj 33 182 <<;
#X msg 33 162 1 \$1;
#X obj 33 203 &, f 6;
#X obj 33 224 != 0;
#X obj 33 245 change;
#X obj 33 268 sel 1 0;
#X obj 164 33 spigot, f 17;
#X obj 263 13 r \$1-\$2-showStep;
#X obj 285 84 loadbang;
#X connect 0 0 2 0;
#X connect 1 0 2 0;
#X connect 4 0 22 0;
#X connect 5 0 6 0;
#X connect 5 0 10 0;
#X connect 5 0 17 0;
#X connect 5 1 7 0;
#X connect 6 0 8 0;
#X connect 7 0 8 0;
#X connect 8 0 9 0;
#X connect 9 0 11 0;
#X connect 10 0 12 0;
#X connect 11 0 14 0;
#X connect 12 0 14 0;
#X connect 13 0 3 0;
#X connect 14 0 3 0;
#X connect 15 0 18 1;
#X connect 16 0 18 0;
#X connect 17 0 16 0;
#X connect 18 0 19 0;
#X connect 19 0 20 0;
#X connect 20 0 21 0;
#X connect 21 0 0 0;
#X connect 21 1 1 0;
#X connect 22 0 5 0;
#X connect 23 0 22 1;
#X connect 24 0 11 0;
#X restore 405 240 pd showStep;
#X obj 470 200 s \$0-STEPnum-rcv;
#X obj 399 139 * 15;
#X obj 443 46 t f f;
#X obj 470 82 * 15;
#X msg 483 172 color 26 26 0;
#X msg 399 162 size \$1 8;
#X obj 399 118 + 10;
#X msg 470 147 pos \$1 \$2;
#X obj 470 124 pack f 45;
#X obj 470 103 + 14;
#X obj 399 97 * -1;
#X obj 443 17 r \$1-\$2-nbsteps;
#X obj 12 101 apf \$1 \$2-\$3 \$0-pattern;
#X obj 13 213 r \$0-pattern-snd;
#X obj 13 353 s \$0-pattern-rcv;
#X obj 207 323 s \$0-pattern-rcv;
#X obj 277 127 r \$0-pattern-snd;
#X connect 14 0 27 0;
#X connect 14 1 16 0;
#X connect 15 0 53 0;
#X connect 16 0 53 0;
#X connect 17 0 18 0;
#X connect 18 0 19 0;
#X connect 19 0 20 0;
#X connect 20 0 22 0;
#X connect 21 0 24 0;
#X connect 22 0 21 0;
#X connect 22 1 23 1;
#X connect 23 0 14 0;
#X connect 24 0 23 0;
#X connect 25 0 15 0;
#X connect 27 0 25 0;
#X connect 31 0 35 0;
#X connect 32 0 52 0;
#X connect 34 0 32 0;
#X connect 35 0 36 0;
#X connect 39 0 43 0;
#X connect 40 0 48 0;
#X connect 40 1 41 0;
#X connect 41 0 47 0;
#X connect 42 0 38 0;
#X connect 43 0 38 0;
#X connect 44 0 39 0;
#X connect 45 0 38 0;
#X connect 46 0 45 0;
#X connect 47 0 46 0;
#X connect 48 0 44 0;
#X connect 49 0 40 0;
#X connect 51 0 31 0;
#X connect 54 0 16 1;
#X connect 54 0 15 1;
#X connect 54 0 21 1;
#X coords 0 -1 1 1 159 54 1 10 10;
