#N canvas 1 102 490 389 10;
#X msg 122 129 color 0 0 22;
#X msg 204 128 color 0 22 22;
#X obj 122 62 div \$2;
#X obj 122 83 == \$1;
#X obj 122 104 sel 0 1, f 28;
#X obj 36 132 +;
#X obj 51 67 loadbang;
#X obj 51 88 f \$1;
#X obj 51 109 * \$2;
#X obj 350 14 loadbang;
#X obj 350 35 f \$1;
#X obj 350 58 * \$2;
#X obj 350 79 t f f, f 8;
#X obj 350 100 + 1;
#X obj 395 101 + \$2;
#X obj 350 121 pack f f;
#X msg 350 142 label \$1-\$2;
#X obj 36 39 r \$3-note\$1;
#X obj 36 154 s \$3-note;
#X obj 122 41 r \$3-note;
#X obj 122 151 s \$3-note\$1-rcv;
#X obj 350 163 s \$3-note\$1-rcv;
#X msg 127 312 number 1 \, color 0 0 22;
#X obj 127 357 s \$3-note\$1-rcv;
#X obj 127 204 r \$3-nbnotes;
#X msg 166 292 number \$1;
#X obj 127 269 moses 1;
#X obj 127 225 -;
#X obj 127 246 min 10;
#X obj 64 220 bng 15 250 50 0 empty empty empty 17 7 0 10 -262144 -1
-1;
#X connect 0 0 20 0;
#X connect 1 0 20 0;
#X connect 2 0 3 0;
#X connect 3 0 4 0;
#X connect 4 0 0 0;
#X connect 4 1 1 0;
#X connect 5 0 18 0;
#X connect 6 0 7 0;
#X connect 7 0 8 0;
#X connect 8 0 5 1;
#X connect 8 0 27 1;
#X connect 9 0 10 0;
#X connect 10 0 11 0;
#X connect 11 0 12 0;
#X connect 12 0 13 0;
#X connect 12 1 14 0;
#X connect 13 0 15 0;
#X connect 14 0 15 1;
#X connect 15 0 16 0;
#X connect 16 0 21 0;
#X connect 17 0 5 0;
#X connect 19 0 2 0;
#X connect 22 0 23 0;
#X connect 24 0 27 0;
#X connect 25 0 23 0;
#X connect 26 0 22 0;
#X connect 26 1 25 0;
#X connect 27 0 28 0;
#X connect 28 0 26 0;
